<svg width="217" height="42" viewBox="0 0 217 42" fill="none" xmlns="http://www.w3.org/2000/svg">
<path d="M109 37.4287C109 34.7512 111.464 32.6694 114.278 32.9688L198.188 41.8971C208.945 43.0417 218.055 34.4738 216.901 24.299C215.698 13.7007 204.073 7.1594 193.645 11.2141L115.553 41.5794C112.429 42.7943 109 40.6225 109 37.4287Z" fill="url(#paint0_linear_10_7)"/>
<path d="M15.4248 34.36C13.6248 34.36 11.9568 34.036 10.4208 33.388C8.88481 32.716 7.54081 31.792 6.38881 30.616C5.26081 29.44 4.38481 28.072 3.76081 26.512C3.13681 24.952 2.82481 23.284 2.82481 21.508C2.82481 19.708 3.13681 18.028 3.76081 16.468C4.38481 14.908 5.26081 13.552 6.38881 12.4C7.54081 11.224 8.87281 10.312 10.3848 9.664C11.9208 8.992 13.5888 8.656 15.3888 8.656C17.3568 8.656 19.0848 8.992 20.5728 9.664C22.0608 10.336 23.3808 11.248 24.5328 12.4L22.1928 14.74C21.4008 13.852 20.4288 13.156 19.2768 12.652C18.1488 12.148 16.8528 11.896 15.3888 11.896C14.0688 11.896 12.8568 12.136 11.7528 12.616C10.6488 13.072 9.68881 13.732 8.87281 14.596C8.05681 15.46 7.42081 16.48 6.96481 17.656C6.53281 18.832 6.31681 20.116 6.31681 21.508C6.31681 22.9 6.53281 24.184 6.96481 25.36C7.42081 26.536 8.05681 27.556 8.87281 28.42C9.68881 29.284 10.6488 29.956 11.7528 30.436C12.8568 30.892 14.0688 31.12 15.3888 31.12C16.9488 31.12 18.3048 30.868 19.4568 30.364C20.6088 29.836 21.5808 29.128 22.3728 28.24L24.7128 30.544C23.5608 31.744 22.2048 32.68 20.6448 33.352C19.1088 34.024 17.3688 34.36 15.4248 34.36ZM35.6163 34.36C33.9123 34.36 32.3763 33.976 31.0083 33.208C29.6403 32.416 28.5603 31.348 27.7683 30.004C26.9763 28.66 26.5803 27.136 26.5803 25.432C26.5803 23.752 26.9643 22.24 27.7323 20.896C28.5243 19.552 29.5803 18.496 30.9003 17.728C32.2443 16.936 33.7443 16.54 35.4003 16.54C36.9843 16.54 38.3763 16.9 39.5763 17.62C40.8003 18.34 41.7483 19.336 42.4203 20.608C43.1163 21.88 43.4643 23.32 43.4643 24.928C43.4643 25.168 43.4523 25.432 43.4283 25.72C43.4043 25.984 43.3563 26.296 43.2843 26.656H28.8483V23.956H41.5563L40.3683 25C40.3683 23.848 40.1643 22.876 39.7563 22.084C39.3483 21.268 38.7723 20.644 38.0283 20.212C37.2843 19.756 36.3843 19.528 35.3283 19.528C34.2243 19.528 33.2523 19.768 32.4123 20.248C31.5723 20.728 30.9243 21.4 30.4683 22.264C30.0123 23.128 29.7843 24.148 29.7843 25.324C29.7843 26.524 30.0243 27.58 30.5043 28.492C30.9843 29.38 31.6683 30.076 32.5563 30.58C33.4443 31.06 34.4643 31.3 35.6163 31.3C36.5763 31.3 37.4523 31.132 38.2443 30.796C39.0603 30.46 39.7563 29.956 40.3323 29.284L42.4203 31.408C41.6043 32.368 40.5963 33.1 39.3963 33.604C38.2203 34.108 36.9603 34.36 35.6163 34.36ZM46.9971 34V16.9H50.2371V34H46.9971ZM50.2371 24.244L49.0131 23.704C49.0131 21.52 49.5171 19.78 50.5251 18.484C51.5331 17.188 52.9851 16.54 54.8811 16.54C55.7451 16.54 56.5251 16.696 57.2211 17.008C57.9171 17.296 58.5651 17.788 59.1651 18.484L57.0411 20.68C56.6811 20.296 56.2851 20.02 55.8531 19.852C55.4211 19.684 54.9171 19.6 54.3411 19.6C53.1411 19.6 52.1571 19.984 51.3891 20.752C50.6211 21.52 50.2371 22.684 50.2371 24.244ZM64.004 34V9.736H67.244V34H64.004ZM59.792 19.852V16.9H71.456V19.852H59.792ZM74.6659 34V16.9H77.9059V34H74.6659ZM76.2859 13.48C75.6859 13.48 75.1939 13.288 74.8099 12.904C74.4259 12.496 74.2339 11.992 74.2339 11.392C74.2339 10.816 74.4259 10.336 74.8099 9.952C75.1939 9.544 75.6859 9.34 76.2859 9.34C76.8859 9.34 77.3779 9.544 77.7619 9.952C78.1459 10.336 78.3379 10.816 78.3379 11.392C78.3379 11.992 78.1459 12.496 77.7619 12.904C77.3779 13.288 76.8859 13.48 76.2859 13.48ZM85.1287 34V13.804C85.1287 12.676 85.3687 11.68 85.8487 10.816C86.3527 9.928 87.0487 9.232 87.9367 8.728C88.8247 8.2 89.8447 7.936 90.9967 7.936C91.8847 7.936 92.6647 8.092 93.3367 8.404C94.0087 8.692 94.6327 9.1 95.2087 9.628L93.0847 11.752C92.7727 11.488 92.4487 11.296 92.1127 11.176C91.7767 11.032 91.4047 10.96 90.9967 10.96C90.1567 10.96 89.5087 11.224 89.0527 11.752C88.5967 12.256 88.3687 12.94 88.3687 13.804V34H85.1287ZM80.9167 19.852V16.9H97.1527V19.852H80.9167ZM95.2807 34V16.9H98.5567V34H95.2807ZM96.9007 15.1C96.3247 15.1 95.8447 14.908 95.4607 14.524C95.0767 14.116 94.8847 13.612 94.8847 13.012C94.8847 12.436 95.0767 11.956 95.4607 11.572C95.8447 11.164 96.3247 10.96 96.9007 10.96C97.5247 10.96 98.0167 11.164 98.3767 11.572C98.7607 11.956 98.9527 12.436 98.9527 13.012C98.9527 13.612 98.7607 14.116 98.3767 14.524C98.0167 14.908 97.5247 15.1 96.9007 15.1ZM111.129 34.36C109.449 34.36 107.925 33.964 106.557 33.172C105.213 32.38 104.145 31.312 103.353 29.968C102.585 28.6 102.201 27.088 102.201 25.432C102.201 23.752 102.585 22.24 103.353 20.896C104.145 19.552 105.213 18.496 106.557 17.728C107.925 16.936 109.449 16.54 111.129 16.54C112.449 16.54 113.673 16.792 114.801 17.296C115.929 17.776 116.901 18.484 117.717 19.42L115.557 21.58C115.029 20.956 114.381 20.488 113.613 20.176C112.869 19.84 112.041 19.672 111.129 19.672C110.049 19.672 109.089 19.924 108.249 20.428C107.409 20.908 106.749 21.58 106.269 22.444C105.789 23.308 105.549 24.304 105.549 25.432C105.549 26.56 105.789 27.556 106.269 28.42C106.749 29.284 107.409 29.968 108.249 30.472C109.089 30.976 110.049 31.228 111.129 31.228C112.041 31.228 112.869 31.072 113.613 30.76C114.381 30.424 115.041 29.944 115.593 29.32L117.717 31.48C116.925 32.392 115.953 33.1 114.801 33.604C113.673 34.108 112.449 34.36 111.129 34.36ZM127.851 34.36C126.291 34.36 124.875 33.976 123.603 33.208C122.331 32.416 121.323 31.348 120.579 30.004C119.859 28.66 119.499 27.148 119.499 25.468C119.499 23.788 119.859 22.276 120.579 20.932C121.323 19.588 122.319 18.52 123.567 17.728C124.839 16.936 126.267 16.54 127.851 16.54C129.147 16.54 130.299 16.816 131.307 17.368C132.339 17.896 133.167 18.64 133.791 19.6C134.415 20.536 134.763 21.628 134.835 22.876V28.024C134.763 29.248 134.415 30.34 133.791 31.3C133.191 32.26 132.375 33.016 131.343 33.568C130.335 34.096 129.171 34.36 127.851 34.36ZM128.391 31.3C129.999 31.3 131.295 30.76 132.279 29.68C133.263 28.576 133.755 27.172 133.755 25.468C133.755 24.292 133.527 23.272 133.071 22.408C132.639 21.52 132.015 20.836 131.199 20.356C130.383 19.852 129.435 19.6 128.355 19.6C127.275 19.6 126.315 19.852 125.475 20.356C124.659 20.86 124.011 21.556 123.531 22.444C123.075 23.308 122.847 24.304 122.847 25.432C122.847 26.584 123.075 27.604 123.531 28.492C124.011 29.356 124.671 30.04 125.511 30.544C126.351 31.048 127.311 31.3 128.391 31.3ZM133.539 34V29.392L134.151 25.216L133.539 21.076V16.9H136.815V34H133.539ZM144.09 34V9.736H147.33V34H144.09ZM139.878 19.852V16.9H151.542V19.852H139.878ZM154.752 34V16.9H157.992V34H154.752ZM156.372 13.48C155.772 13.48 155.28 13.288 154.896 12.904C154.512 12.496 154.32 11.992 154.32 11.392C154.32 10.816 154.512 10.336 154.896 9.952C155.28 9.544 155.772 9.34 156.372 9.34C156.972 9.34 157.464 9.544 157.848 9.952C158.232 10.336 158.424 10.816 158.424 11.392C158.424 11.992 158.232 12.496 157.848 12.904C157.464 13.288 156.972 13.48 156.372 13.48ZM170.579 34.36C168.899 34.36 167.387 33.964 166.043 33.172C164.699 32.38 163.631 31.312 162.839 29.968C162.047 28.6 161.651 27.076 161.651 25.396C161.651 23.74 162.047 22.252 162.839 20.932C163.631 19.588 164.699 18.52 166.043 17.728C167.387 16.936 168.899 16.54 170.579 16.54C172.235 16.54 173.735 16.936 175.079 17.728C176.447 18.496 177.527 19.552 178.319 20.896C179.111 22.24 179.507 23.74 179.507 25.396C179.507 27.076 179.111 28.6 178.319 29.968C177.527 31.312 176.447 32.38 175.079 33.172C173.735 33.964 172.235 34.36 170.579 34.36ZM170.579 31.228C171.659 31.228 172.619 30.976 173.459 30.472C174.299 29.968 174.959 29.284 175.439 28.42C175.919 27.532 176.159 26.524 176.159 25.396C176.159 24.292 175.907 23.308 175.403 22.444C174.923 21.58 174.263 20.908 173.423 20.428C172.607 19.924 171.659 19.672 170.579 19.672C169.499 19.672 168.539 19.924 167.699 20.428C166.859 20.908 166.199 21.58 165.719 22.444C165.239 23.308 164.999 24.292 164.999 25.396C164.999 26.524 165.239 27.532 165.719 28.42C166.199 29.284 166.859 29.968 167.699 30.472C168.539 30.976 169.499 31.228 170.579 31.228ZM195.253 34V24.028C195.253 22.732 194.845 21.664 194.029 20.824C193.213 19.984 192.157 19.564 190.861 19.564C189.997 19.564 189.229 19.756 188.557 20.14C187.885 20.524 187.357 21.052 186.973 21.724C186.589 22.396 186.397 23.164 186.397 24.028L185.065 23.272C185.065 21.976 185.353 20.824 185.929 19.816C186.505 18.808 187.309 18.016 188.341 17.44C189.373 16.84 190.537 16.54 191.833 16.54C193.129 16.54 194.269 16.864 195.253 17.512C196.261 18.16 197.053 19.012 197.629 20.068C198.205 21.1 198.493 22.204 198.493 23.38V34H195.253ZM183.157 34V16.9H186.397V34H183.157ZM208.316 34.36C207.356 34.36 206.444 34.24 205.58 34C204.74 33.736 203.96 33.376 203.24 32.92C202.52 32.44 201.896 31.876 201.368 31.228L203.456 29.14C204.08 29.908 204.8 30.484 205.616 30.868C206.432 31.228 207.344 31.408 208.352 31.408C209.36 31.408 210.14 31.24 210.692 30.904C211.244 30.544 211.52 30.052 211.52 29.428C211.52 28.804 211.292 28.324 210.836 27.988C210.404 27.628 209.84 27.34 209.144 27.124C208.448 26.884 207.704 26.656 206.912 26.44C206.144 26.2 205.412 25.9 204.716 25.54C204.02 25.18 203.444 24.688 202.988 24.064C202.556 23.44 202.34 22.612 202.34 21.58C202.34 20.548 202.592 19.66 203.096 18.916C203.6 18.148 204.296 17.56 205.184 17.152C206.096 16.744 207.188 16.54 208.46 16.54C209.804 16.54 210.992 16.78 212.024 17.26C213.08 17.716 213.944 18.412 214.616 19.348L212.528 21.436C212.048 20.812 211.448 20.332 210.728 19.996C210.032 19.66 209.24 19.492 208.352 19.492C207.416 19.492 206.696 19.66 206.192 19.996C205.712 20.308 205.472 20.752 205.472 21.328C205.472 21.904 205.688 22.348 206.12 22.66C206.552 22.972 207.116 23.236 207.812 23.452C208.532 23.668 209.276 23.896 210.044 24.136C210.812 24.352 211.544 24.652 212.24 25.036C212.936 25.42 213.5 25.936 213.932 26.584C214.388 27.232 214.616 28.084 214.616 29.14C214.616 30.748 214.04 32.02 212.888 32.956C211.76 33.892 210.236 34.36 208.316 34.36Z" fill="white"/>
<defs>
<linearGradient id="paint0_linear_10_7" x1="514.945" y1="31.3041" x2="474.234" y2="164.208" gradientUnits="userSpaceOnUse">
<stop stop-color="#FFD740"/>
<stop offset="0.35" stop-color="#FFCA28"/>
<stop offset="0.7" stop-color="#FFA000"/>
<stop offset="1" stop-color="#F57C00"/>
</linearGradient>
</defs>
</svg>
