<svg width="109" height="57" viewBox="0 0 156 61" fill="none" xmlns="http://www.w3.org/2000/svg">
<g clip-path="url(#clip0_2_9)">
<path d="M25 43.8155C25 40.4333 27.8682 37.8034 31.1444 38.1817L128.819 49.4602C141.34 50.906 151.945 40.0828 150.601 27.2298C149.202 13.8417 135.669 5.57854 123.53 10.7005L32.6284 49.0588C28.9915 50.5935 25 47.8501 25 43.8155Z" fill="url(#paint0_linear_2_9)"/>
</g>
<path d="M35.7495 12.392C35.7495 14.6107 34.7895 16.296 32.8695 17.448C33.9148 17.832 34.7895 18.4933 35.4935 19.432C36.1975 20.3707 36.5495 21.704 36.5495 23.432C36.5495 25.1387 35.9095 26.4933 34.6295 27.496C33.3708 28.4987 31.5575 29 29.1895 29H21.6375C21.2748 29 20.9762 28.8827 20.7415 28.648C20.5068 28.392 20.3895 28.0613 20.3895 27.656V7.176C20.3895 6.94133 20.4215 6.792 20.4855 6.728C20.5708 6.64267 20.7308 6.6 20.9655 6.6H28.2615C33.2535 6.6 35.7495 8.53067 35.7495 12.392ZM26.5335 11.784V15.976H26.6935C28.7415 15.976 29.7655 15.2933 29.7655 13.928C29.7655 13.1813 29.5628 12.6373 29.1575 12.296C28.7735 11.9547 28.1228 11.784 27.2055 11.784H26.5335ZM26.5335 19.752V23.912H27.1095C28.0268 23.912 28.6988 23.7413 29.1255 23.4C29.5522 23.0587 29.7655 22.5147 29.7655 21.768C29.7655 21.0213 29.5628 20.4987 29.1575 20.2C28.7735 19.9013 28.1228 19.752 27.2055 19.752H26.5335ZM45.8855 28.968C45.8855 29.1173 44.9148 29.192 42.9735 29.192C41.0322 29.1493 40.0615 29.064 40.0615 28.936V18.312H39.1975C38.8562 18.312 38.5788 18.1093 38.3655 17.704C38.1735 17.2773 38.0775 16.7547 38.0775 16.136C38.0775 13.832 38.7602 12.68 40.1255 12.68C41.0855 12.68 41.8855 12.9787 42.5255 13.576C43.1655 14.152 43.4855 14.8133 43.4855 15.56C43.9335 14.6853 44.5308 13.992 45.2775 13.48C46.0455 12.9467 46.8242 12.68 47.6135 12.68C48.8508 12.68 49.5975 13 49.8535 13.64C49.9175 13.8107 49.9495 14.0667 49.9495 14.408C49.9495 14.728 49.8428 15.3147 49.6295 16.168C49.4375 17.0213 49.2348 17.64 49.0215 18.024C48.8082 18.408 48.6802 18.6 48.6375 18.6C48.5948 18.6 48.3922 18.5253 48.0295 18.376C47.6882 18.2053 47.3788 18.12 47.1015 18.12C46.2908 18.12 45.8855 18.76 45.8855 20.04V28.968ZM57.421 28.808C57.421 28.9787 56.4397 29.064 54.477 29.064C52.5357 29.064 51.565 28.9893 51.565 28.84V13.128C51.565 12.9787 52.5357 12.904 54.477 12.904C56.4397 12.904 57.421 12.968 57.421 13.096V28.808ZM57.421 11.208C57.421 11.3573 56.4397 11.432 54.477 11.432C52.5357 11.432 51.565 11.368 51.565 11.24V6.632C51.565 6.41866 52.5357 6.312 54.477 6.312C56.4397 6.312 57.421 6.376 57.421 6.504V11.208ZM60.315 27.88V13.128C60.315 13 61.275 12.936 63.195 12.936C65.1363 12.936 66.107 12.9893 66.107 13.096V30.152C66.107 31.7307 65.4457 32.9787 64.123 33.896C62.8217 34.8347 61.1897 35.304 59.227 35.304C56.475 35.304 55.099 34.344 55.099 32.424C55.099 31.784 55.2057 31.2507 55.419 30.824C55.611 30.8453 55.8777 30.856 56.219 30.856C57.7763 30.856 58.843 30.6107 59.419 30.12C60.0163 29.6293 60.315 28.8827 60.315 27.88ZM60.315 11.24V6.632C60.315 6.41866 61.275 6.312 63.195 6.312C65.1363 6.312 66.107 6.376 66.107 6.504V11.208C66.107 11.3573 65.1363 11.432 63.195 11.432C61.275 11.432 60.315 11.368 60.315 11.24ZM81.0985 28.136C79.7545 28.9253 78.0265 29.32 75.9145 29.32C73.8025 29.32 72.0212 28.6053 70.5705 27.176C69.1198 25.7253 68.3945 23.7307 68.3945 21.192C68.3945 18.632 69.0878 16.5733 70.4745 15.016C71.8825 13.4587 73.6532 12.68 75.7865 12.68C77.9198 12.68 79.5625 13.224 80.7145 14.312C81.8878 15.4 82.4745 16.7227 82.4745 18.28C82.4745 21.736 80.4905 23.464 76.5225 23.464H74.3145C74.3145 24.104 74.4852 24.552 74.8265 24.808C75.1892 25.0427 75.7118 25.16 76.3945 25.16C77.8878 25.16 79.3065 24.8187 80.6505 24.136C80.6718 24.1147 80.7678 24.264 80.9385 24.584C81.4505 25.5013 81.7065 26.28 81.7065 26.92C81.7065 27.5387 81.5038 27.944 81.0985 28.136ZM77.0985 18.888C77.0985 17.992 76.6612 17.544 75.7865 17.544C75.3812 17.544 75.0292 17.672 74.7305 17.928C74.4532 18.1627 74.3145 18.5147 74.3145 18.984V19.976H76.0425C76.7465 19.976 77.0985 19.6133 77.0985 18.888ZM85.237 23.24C86.965 24.2853 88.3303 24.808 89.333 24.808C89.973 24.808 90.293 24.584 90.293 24.136C90.293 23.816 89.7383 23.4 88.629 22.888C85.9623 21.8 84.629 20.0187 84.629 17.544C84.629 15.9653 85.205 14.76 86.357 13.928C87.509 13.096 88.885 12.68 90.485 12.68C92.1063 12.68 93.4717 12.8507 94.581 13.192C95.7117 13.5333 96.277 13.9813 96.277 14.536C96.277 15.0053 96.0423 15.624 95.573 16.392C95.125 17.16 94.8157 17.576 94.645 17.64C93.7277 17.128 92.7357 16.872 91.669 16.872C91.093 16.872 90.805 17.0747 90.805 17.48C90.805 17.736 90.9117 17.96 91.125 18.152C91.3597 18.3227 91.7757 18.5467 92.373 18.824C92.9703 19.08 93.461 19.3147 93.845 19.528C94.2503 19.7413 94.6983 20.04 95.189 20.424C96.213 21.2347 96.725 22.2907 96.725 23.592C96.725 25.2987 96.1597 26.6853 95.029 27.752C93.8983 28.7973 92.1917 29.32 89.909 29.32C88.3943 29.32 87.0183 29.064 85.781 28.552C84.5437 28.04 83.925 27.336 83.925 26.44C83.925 25.8427 84.0637 25.2133 84.341 24.552C84.6397 23.8907 84.9383 23.4533 85.237 23.24ZM104.315 28.776C104.315 28.968 103.419 29.064 101.627 29.064C99.8566 29.064 98.9713 28.9147 98.9713 28.616V6.696C98.9713 6.54667 99.3019 6.44 99.9633 6.376C100.625 6.312 101.179 6.28 101.627 6.28C103.419 6.28 104.315 6.472 104.315 6.856V13.256C105.51 12.8933 106.417 12.712 107.035 12.712C108.657 12.712 109.937 13.1493 110.875 14.024C111.814 14.8773 112.283 16.4773 112.283 18.824V28.744C112.283 28.936 111.451 29.032 109.787 29.032C107.91 28.968 106.971 28.8613 106.971 28.712V19.304C106.971 18.2587 106.63 17.736 105.947 17.736C105.478 17.736 104.934 17.96 104.315 18.408V28.776Z" fill="white"/>
<path d="M32.8695 17.448L32.6123 17.0193L31.7161 17.557L32.6971 17.9173L32.8695 17.448ZM35.4935 19.432L35.8935 19.132L35.8935 19.132L35.4935 19.432ZM34.6295 27.496L34.3212 27.1024L34.318 27.1049L34.6295 27.496ZM20.7415 28.648L20.3729 28.9859L20.3803 28.9939L20.3879 29.0016L20.7415 28.648ZM20.4855 6.728L20.1319 6.37445L20.1319 6.37445L20.4855 6.728ZM26.5335 11.784V11.284H26.0335V11.784H26.5335ZM26.5335 15.976H26.0335V16.476H26.5335V15.976ZM29.1575 12.296L28.8252 12.6698L28.8354 12.6785L29.1575 12.296ZM26.5335 19.752V19.252H26.0335V19.752H26.5335ZM26.5335 23.912H26.0335V24.412H26.5335V23.912ZM29.1255 23.4L29.4378 23.7904L29.4378 23.7904L29.1255 23.4ZM29.1575 20.2L28.8504 20.5948L28.8609 20.6025L29.1575 20.2ZM35.7495 12.392H35.2495C35.2495 14.4331 34.3834 15.9566 32.6123 17.0193L32.8695 17.448L33.1267 17.8767C35.1956 16.6354 36.2495 14.7883 36.2495 12.392H35.7495ZM32.8695 17.448L32.6971 17.9173C33.6468 18.2662 34.4442 18.8662 35.0935 19.732L35.4935 19.432L35.8935 19.132C35.1348 18.1205 34.1828 17.3978 33.0419 16.9787L32.8695 17.448ZM35.4935 19.432L35.0935 19.732C35.7083 20.5518 36.0495 21.7632 36.0495 23.432H36.5495H37.0495C37.0495 21.6448 36.6867 20.1896 35.8935 19.132L35.4935 19.432ZM36.5495 23.432H36.0495C36.0495 24.9938 35.4734 26.1998 34.3212 27.1024L34.6295 27.496L34.9378 27.8896C36.3456 26.7868 37.0495 25.2835 37.0495 23.432H36.5495ZM34.6295 27.496L34.318 27.1049C33.1811 28.0106 31.4958 28.5 29.1895 28.5V29V29.5C31.6192 29.5 33.5606 28.9868 34.941 27.8871L34.6295 27.496ZM29.1895 29V28.5H21.6375V29V29.5H29.1895V29ZM21.6375 29V28.5C21.3939 28.5 21.2268 28.4262 21.0951 28.2944L20.7415 28.648L20.3879 29.0016C20.7255 29.3392 21.1558 29.5 21.6375 29.5V29ZM20.7415 28.648L21.1101 28.3101C20.9739 28.1616 20.8895 27.9585 20.8895 27.656H20.3895H19.8895C19.8895 28.1641 20.0398 28.6224 20.3729 28.9859L20.7415 28.648ZM20.3895 27.656H20.8895V7.176H20.3895H19.8895V27.656H20.3895ZM20.3895 7.176H20.8895C20.8895 7.12833 20.8911 7.08913 20.8938 7.05752C20.8964 7.02556 20.8998 7.00468 20.9024 6.99276C20.9051 6.98012 20.9056 6.98359 20.8995 6.99718C20.8935 7.0104 20.8764 7.04422 20.8391 7.08155L20.4855 6.728L20.1319 6.37445C19.9995 6.50689 19.9484 6.67206 19.9246 6.78323C19.8984 6.90547 19.8895 7.04006 19.8895 7.176H20.3895ZM20.4855 6.728L20.8391 7.08155C20.8006 7.12003 20.7731 7.12186 20.7983 7.11512C20.8229 7.10857 20.8751 7.1 20.9655 7.1V6.6V6.1C20.7084 6.1 20.3675 6.13887 20.1319 6.37445L20.4855 6.728ZM20.9655 6.6V7.1H28.2615V6.6V6.1H20.9655V6.6ZM28.2615 6.6V7.1C30.7069 7.1 32.4491 7.57528 33.5716 8.44349C34.6697 9.29286 35.2495 10.5776 35.2495 12.392H35.7495H36.2495C36.2495 10.345 35.5813 8.7338 34.1834 7.6525C32.8099 6.59005 30.8081 6.1 28.2615 6.1V6.6ZM26.5335 11.784H26.0335V15.976H26.5335H27.0335V11.784H26.5335ZM26.5335 15.976V16.476H26.6935V15.976V15.476H26.5335V15.976ZM26.6935 15.976V16.476C27.7573 16.476 28.6425 16.3016 29.2749 15.88C29.943 15.4346 30.2655 14.7563 30.2655 13.928H29.7655H29.2655C29.2655 14.465 29.076 14.8107 28.7202 15.048C28.3285 15.3091 27.6777 15.476 26.6935 15.476V15.976ZM29.7655 13.928H30.2655C30.2655 13.0967 30.0383 12.384 29.4796 11.9135L29.1575 12.296L28.8354 12.6785C29.0874 12.8906 29.2655 13.266 29.2655 13.928H29.7655ZM29.1575 12.296L29.4897 11.9223C28.9653 11.4562 28.1586 11.284 27.2055 11.284V11.784V12.284C28.0871 12.284 28.5817 12.4531 28.8253 12.6697L29.1575 12.296ZM27.2055 11.784V11.284H26.5335V11.784V12.284H27.2055V11.784ZM26.5335 19.752H26.0335V23.912H26.5335H27.0335V19.752H26.5335ZM26.5335 23.912V24.412H27.1095V23.912V23.412H26.5335V23.912ZM27.1095 23.912V24.412C28.0699 24.412 28.8799 24.2368 29.4378 23.7904L29.1255 23.4L28.8132 23.0096C28.5178 23.2458 27.9838 23.412 27.1095 23.412V23.912ZM29.1255 23.4L29.4378 23.7904C30.0227 23.3226 30.2655 22.6074 30.2655 21.768H29.7655H29.2655C29.2655 22.4219 29.0817 22.7948 28.8132 23.0096L29.1255 23.4ZM29.7655 21.768H30.2655C30.2655 20.9426 30.0404 20.2295 29.4541 19.7975L29.1575 20.2L28.8609 20.6025C29.0852 20.7678 29.2655 21.1 29.2655 21.768H29.7655ZM29.1575 20.2L29.4645 19.8053C28.9434 19.4 28.1489 19.252 27.2055 19.252V19.752V20.252C28.0968 20.252 28.6036 20.4027 28.8505 20.5947L29.1575 20.2ZM27.2055 19.752V19.252H26.5335V19.752V20.252H27.2055V19.752ZM42.9735 29.192L42.9625 29.692H42.9735V29.192ZM40.0615 18.312H40.5615V17.812H40.0615V18.312ZM38.3655 17.704L37.9095 17.9092L37.9159 17.9232L37.923 17.9369L38.3655 17.704ZM42.5255 13.576L42.1843 13.9416L42.191 13.9476L42.5255 13.576ZM43.4855 15.56H42.9855L43.9305 15.7879L43.4855 15.56ZM45.2775 13.48L45.5603 13.8924L45.5627 13.8907L45.2775 13.48ZM49.8535 13.64L50.3218 13.4644L50.3177 13.4543L49.8535 13.64ZM49.6295 16.168L49.1443 16.0467L49.1417 16.0582L49.6295 16.168ZM48.0295 18.376L47.8059 18.8232L47.8222 18.8314L47.8391 18.8383L48.0295 18.376ZM45.8855 28.968H45.3855C45.3855 28.8301 45.4447 28.7271 45.4963 28.6677C45.5428 28.614 45.5883 28.5882 45.603 28.5803C45.6315 28.5649 45.6372 28.5682 45.5911 28.5788C45.5074 28.5981 45.3557 28.6193 45.1192 28.6375C44.6537 28.6733 43.9413 28.692 42.9735 28.692V29.192V29.692C43.947 29.692 44.6907 29.6734 45.1958 29.6345C45.4447 29.6154 45.657 29.5899 45.8159 29.5532C45.8911 29.5358 45.9879 29.5088 46.077 29.4607C46.1322 29.431 46.3855 29.2863 46.3855 28.968H45.8855ZM42.9735 29.192L42.9845 28.6921C42.0163 28.6708 41.3017 28.6391 40.8333 28.5979C40.5958 28.577 40.4398 28.5552 40.3508 28.5357C40.3021 28.5249 40.3019 28.5209 40.3247 28.5319C40.3352 28.537 40.38 28.559 40.4284 28.6079C40.4803 28.6604 40.5615 28.7718 40.5615 28.936H40.0615H39.5615C39.5615 29.1162 39.6503 29.2433 39.7174 29.3111C39.7809 29.3754 39.8484 29.4124 39.8893 29.4321C39.9728 29.4725 40.0636 29.4964 40.1362 29.5123C40.2899 29.5461 40.4978 29.5723 40.7457 29.5941C41.248 29.6382 41.9894 29.6705 42.9625 29.6919L42.9735 29.192ZM40.0615 28.936H40.5615V18.312H40.0615H39.5615V28.936H40.0615ZM40.0615 18.312V17.812H39.1975V18.312V18.812H40.0615V18.312ZM39.1975 18.312V17.812C39.1052 17.812 38.969 17.7771 38.808 17.4711L38.3655 17.704L37.923 17.9369C38.1887 18.4416 38.6071 18.812 39.1975 18.812V18.312ZM38.3655 17.704L38.8215 17.4988C38.6662 17.1539 38.5775 16.7056 38.5775 16.136H38.0775H37.5775C37.5775 16.8037 37.6808 17.4008 37.9095 17.9092L38.3655 17.704ZM38.0775 16.136H38.5775C38.5775 15.017 38.7462 14.2604 39.0196 13.7989C39.2688 13.3785 39.6152 13.18 40.1255 13.18V12.68V12.18C39.2705 12.18 38.5929 12.5575 38.1594 13.2891C37.7502 13.9796 37.5775 14.951 37.5775 16.136H38.0775ZM40.1255 12.68V13.18C40.9722 13.18 41.6462 13.4393 42.1843 13.9415L42.5255 13.576L42.8667 13.2105C42.1248 12.5181 41.1988 12.18 40.1255 12.18V12.68ZM42.5255 13.576L42.191 13.9476C42.7434 14.4448 42.9855 14.9774 42.9855 15.56H43.4855H43.9855C43.9855 14.6493 43.5876 13.8592 42.86 13.2044L42.5255 13.576ZM43.4855 15.56L43.9305 15.7879C44.3439 14.9808 44.8879 14.3534 45.5603 13.8924L45.2775 13.48L44.9947 13.0676C44.1737 13.6306 43.5231 14.3899 43.0405 15.3321L43.4855 15.56ZM45.2775 13.48L45.5627 13.8907C46.2628 13.4045 46.9438 13.18 47.6135 13.18V12.68V12.18C46.7045 12.18 45.8282 12.4888 44.9923 13.0693L45.2775 13.48ZM47.6135 12.68V13.18C48.8201 13.18 49.2578 13.497 49.3893 13.8257L49.8535 13.64L50.3177 13.4543C49.9372 12.503 48.8816 12.18 47.6135 12.18V12.68ZM49.8535 13.64L49.3853 13.8156C49.4172 13.9005 49.4495 14.0837 49.4495 14.408H49.9495H50.4495C50.4495 14.0496 50.4178 13.7208 50.3217 13.4644L49.8535 13.64ZM49.9495 14.408H49.4495C49.4495 14.6576 49.3594 15.187 49.1444 16.0467L49.6295 16.168L50.1146 16.2893C50.3263 15.4423 50.4495 14.7984 50.4495 14.408H49.9495ZM49.6295 16.168L49.1417 16.0582C48.952 16.9015 48.7616 17.4623 48.5844 17.7812L49.0215 18.024L49.4586 18.2668C49.7081 17.8177 49.923 17.1412 50.1173 16.2778L49.6295 16.168ZM49.0215 18.024L48.5844 17.7812C48.4796 17.9699 48.4021 18.0998 48.3495 18.1786C48.3219 18.22 48.3102 18.2336 48.3118 18.2318C48.3131 18.2304 48.317 18.226 48.3234 18.2198C48.3295 18.214 48.341 18.2034 48.3575 18.191C48.373 18.1794 48.4014 18.1598 48.4413 18.1418C48.48 18.1244 48.5483 18.1 48.6375 18.1V18.6V19.1C48.8112 19.1 48.9283 19.0129 48.9575 18.991C49.0034 18.9566 49.0379 18.9201 49.0592 18.8962C49.1034 18.8464 49.1451 18.788 49.1815 18.7333C49.2569 18.6202 49.3501 18.4621 49.4586 18.2668L49.0215 18.024ZM48.6375 18.6V18.1C48.6682 18.1 48.6913 18.1031 48.7013 18.1046C48.7129 18.1063 48.721 18.1081 48.7241 18.1088C48.7301 18.1101 48.73 18.1104 48.7211 18.1077C48.7037 18.1024 48.6732 18.0921 48.6264 18.0748C48.5338 18.0407 48.3993 17.9875 48.2199 17.9137L48.0295 18.376L47.8391 18.8383C48.0224 18.9138 48.1705 18.9726 48.2806 19.0132C48.3351 19.0332 48.386 19.051 48.4299 19.0643C48.4479 19.0698 48.5399 19.1 48.6375 19.1V18.6ZM48.0295 18.376L48.2531 17.9288C47.867 17.7357 47.48 17.62 47.1015 17.62V18.12V18.62C47.2777 18.62 47.5093 18.6749 47.8059 18.8232L48.0295 18.376ZM47.1015 18.12V17.62C46.5393 17.62 46.0689 17.856 45.7671 18.3325C45.4897 18.7704 45.3855 19.3633 45.3855 20.04H45.8855H46.3855C46.3855 19.4367 46.4839 19.0696 46.6119 18.8675C46.7154 18.704 46.8531 18.62 47.1015 18.62V18.12ZM45.8855 20.04H45.3855V28.968H45.8855H46.3855V20.04H45.8855ZM57.421 28.808H56.921C56.921 28.5603 57.1008 28.4495 57.115 28.4409C57.1461 28.422 57.1552 28.4246 57.1108 28.4362C57.03 28.4573 56.8799 28.4812 56.6417 28.5019C56.1734 28.5426 55.4551 28.564 54.477 28.564V29.064V29.564C55.4616 29.564 56.2153 29.5427 56.7283 29.4981C56.9807 29.4762 57.1987 29.4467 57.3632 29.4038C57.4415 29.3834 57.5426 29.3513 57.635 29.2951C57.7105 29.2491 57.921 29.0984 57.921 28.808H57.421ZM54.477 29.064V28.564C53.5092 28.564 52.7968 28.5453 52.3313 28.5095C52.0948 28.4913 51.9431 28.4701 51.8594 28.4508C51.8133 28.4402 51.819 28.4369 51.8475 28.4523C51.8622 28.4602 51.9077 28.486 51.9542 28.5397C52.0058 28.5991 52.065 28.7021 52.065 28.84H51.565H51.065C51.065 29.1583 51.3183 29.303 51.3735 29.3327C51.4626 29.3808 51.5594 29.4078 51.6346 29.4252C51.7935 29.4619 52.0058 29.4874 52.2547 29.5065C52.7598 29.5454 53.5035 29.564 54.477 29.564V29.064ZM51.565 28.84H52.065V13.128H51.565H51.065V28.84H51.565ZM51.565 13.128H52.065C52.065 13.2659 52.0058 13.3689 51.9542 13.4283C51.9077 13.482 51.8622 13.5078 51.8475 13.5157C51.819 13.5311 51.8133 13.5278 51.8594 13.5172C51.9431 13.4979 52.0948 13.4767 52.3313 13.4585C52.7968 13.4227 53.5092 13.404 54.477 13.404V12.904V12.404C53.5035 12.404 52.7598 12.4226 52.2547 12.4615C52.0058 12.4806 51.7935 12.5061 51.6346 12.5428C51.5594 12.5602 51.4626 12.5872 51.3735 12.6353C51.3183 12.665 51.065 12.8097 51.065 13.128H51.565ZM54.477 12.904V13.404C55.4559 13.404 56.1786 13.42 56.6525 13.4509C56.8927 13.4666 57.0508 13.485 57.141 13.5027C57.1906 13.5124 57.1907 13.5165 57.1674 13.5058C57.1566 13.501 57.1102 13.4794 57.0599 13.4302C57.0053 13.3768 56.921 13.2635 56.921 13.096H57.421H57.921C57.921 12.9125 57.8291 12.7837 57.7591 12.7153C57.6934 12.6511 57.624 12.615 57.5826 12.5962C57.498 12.5575 57.4061 12.5356 57.333 12.5213C57.1779 12.491 56.968 12.4694 56.7175 12.4531C56.21 12.42 55.4608 12.404 54.477 12.404V12.904ZM57.421 13.096H56.921V28.808H57.421H57.921V13.096H57.421ZM57.421 11.208H56.921C56.921 11.0683 56.9816 10.9647 57.0334 10.9056C57.0802 10.8523 57.1257 10.8268 57.14 10.8192C57.1678 10.8043 57.1728 10.8078 57.1257 10.8185C57.0403 10.838 56.8863 10.8592 56.6471 10.8774C56.176 10.9133 55.4555 10.932 54.477 10.932V11.432V11.932C55.4612 11.932 56.2126 11.9134 56.7229 11.8746C56.9743 11.8554 57.1883 11.83 57.3483 11.7935C57.4239 11.7762 57.5208 11.7493 57.61 11.7018C57.6635 11.6733 57.921 11.5291 57.921 11.208H57.421ZM54.477 11.432V10.932C53.5088 10.932 52.7942 10.916 52.3259 10.8851C52.0884 10.8694 51.9326 10.851 51.844 10.8335C51.7953 10.8239 51.796 10.8199 51.82 10.831C51.8312 10.8362 51.8777 10.858 51.928 10.9077C51.9826 10.9618 52.065 11.0745 52.065 11.24H51.565H51.065C51.065 11.4215 51.155 11.5497 51.2248 11.6188C51.2902 11.6835 51.3595 11.7198 51.401 11.739C51.4857 11.7781 51.5774 11.8001 51.65 11.8145C51.8041 11.845 52.0123 11.8666 52.2601 11.8829C52.7625 11.916 53.5039 11.932 54.477 11.932V11.432ZM51.565 11.24H52.065V6.632H51.565H51.065V11.24H51.565ZM51.565 6.632H52.065C52.065 6.81989 51.9518 6.92525 51.9154 6.95331C51.881 6.97971 51.8656 6.97938 51.9035 6.96686C51.9742 6.94358 52.1143 6.91464 52.3476 6.88901C52.8048 6.83877 53.5105 6.812 54.477 6.812V6.312V5.812C53.5022 5.812 52.7519 5.83856 52.2384 5.89499C51.9863 5.92269 51.7625 5.96041 51.5905 6.01714C51.5071 6.04462 51.4006 6.08762 51.3056 6.16069C51.2085 6.23542 51.065 6.39078 51.065 6.632H51.565ZM54.477 6.312V6.812C55.4559 6.812 56.1786 6.82804 56.6525 6.85894C56.8927 6.87461 57.0508 6.89304 57.141 6.9107C57.1906 6.9204 57.1907 6.9245 57.1674 6.91384C57.1566 6.90895 57.1102 6.88744 57.0599 6.83817C57.0053 6.78475 56.921 6.67149 56.921 6.504H57.421H57.921C57.921 6.32051 57.8291 6.19175 57.7591 6.12333C57.6934 6.05905 57.624 6.02305 57.5826 6.00416C57.498 5.9655 57.4061 5.9436 57.333 5.9293C57.1779 5.89896 56.968 5.87739 56.7175 5.86106C56.21 5.82796 55.4608 5.812 54.477 5.812V6.312ZM57.421 6.504H56.921V11.208H57.421H57.921V6.504H57.421ZM64.123 33.896L63.838 33.4851L63.8305 33.4905L64.123 33.896ZM55.419 30.824L55.4742 30.3271L55.1277 30.2886L54.9718 30.6004L55.419 30.824ZM59.419 30.12L59.1016 29.7336L59.0948 29.7394L59.419 30.12ZM60.315 27.88H60.815V13.128H60.315H59.815V27.88H60.315ZM60.315 13.128H60.815C60.815 13.2915 60.7344 13.4037 60.6798 13.4583C60.6297 13.5084 60.583 13.5307 60.5714 13.5361C60.5467 13.5476 60.5451 13.5439 60.5931 13.5343C60.68 13.5169 60.8335 13.4985 61.0683 13.4829C61.531 13.452 62.2375 13.436 63.195 13.436V12.936V12.436C62.2325 12.436 61.499 12.452 61.0017 12.4851C60.7565 12.5015 60.55 12.5231 60.3969 12.5537C60.3249 12.5681 60.2333 12.5904 60.1486 12.6299C60.107 12.6493 60.0378 12.6861 59.9727 12.7512C59.9031 12.8208 59.815 12.9485 59.815 13.128H60.315ZM63.195 12.936V13.436C64.1636 13.436 64.8804 13.4494 65.3516 13.4752C65.59 13.4883 65.75 13.5039 65.8437 13.5193C65.8949 13.5278 65.9001 13.5321 65.882 13.5252C65.8753 13.5226 65.8298 13.5055 65.7776 13.4625C65.7261 13.42 65.607 13.2987 65.607 13.096H66.107H66.607C66.607 12.88 66.4804 12.7458 66.4136 12.6908C66.3462 12.6352 66.2781 12.6061 66.241 12.5918C66.1622 12.5615 66.0765 12.5442 66.0063 12.5327C65.8573 12.5081 65.6533 12.4903 65.4064 12.4768C64.9069 12.4493 64.1677 12.436 63.195 12.436V12.936ZM66.107 13.096H65.607V30.152H66.107H66.607V13.096H66.107ZM66.107 30.152H65.607C65.607 31.5629 65.0292 32.659 63.8381 33.4851L64.123 33.896L64.4079 34.3069C65.8622 33.2983 66.607 31.8984 66.607 30.152H66.107ZM64.123 33.896L63.8305 33.4905C62.6318 34.3551 61.1085 34.804 59.227 34.804V35.304V35.804C61.2708 35.804 63.0115 35.3142 64.4155 34.3015L64.123 33.896ZM59.227 35.304V34.804C57.8938 34.804 56.9829 34.5687 56.4171 34.1739C55.884 33.802 55.599 33.2478 55.599 32.424H55.099H54.599C54.599 33.5202 55.002 34.406 55.8449 34.9941C56.6551 35.5593 57.8082 35.804 59.227 35.804V35.304ZM55.099 32.424H55.599C55.599 31.8363 55.6974 31.3853 55.8662 31.0476L55.419 30.824L54.9718 30.6004C54.714 31.116 54.599 31.7317 54.599 32.424H55.099ZM55.419 30.824L55.3638 31.3209C55.5829 31.3453 55.8709 31.356 56.219 31.356V30.856V30.356C55.8844 30.356 55.6391 30.3454 55.4742 30.3271L55.419 30.824ZM56.219 30.856V31.356C57.7899 31.356 59.0202 31.1165 59.7432 30.5006L59.419 30.12L59.0948 29.7394C58.6658 30.1048 57.7628 30.356 56.219 30.356V30.856ZM59.419 30.12L59.7364 30.5064C60.4818 29.894 60.815 28.9844 60.815 27.88H60.315H59.815C59.815 28.7809 59.5508 29.3647 59.1016 29.7336L59.419 30.12ZM60.315 11.24H60.815V6.632H60.315H59.815V11.24H60.315ZM60.315 6.632H60.815C60.815 6.81748 60.7043 6.92261 60.667 6.95167C60.6323 6.97865 60.6161 6.97868 60.6531 6.96634C60.7219 6.94339 60.8597 6.91455 61.0902 6.88894C61.5417 6.83877 62.2392 6.812 63.195 6.812V6.312V5.812C62.2308 5.812 61.4883 5.83856 60.9798 5.89506C60.7303 5.92278 60.5081 5.9606 60.3369 6.01766C60.2539 6.04532 60.1477 6.08868 60.053 6.16232C59.9557 6.23805 59.815 6.39318 59.815 6.632H60.315ZM63.195 6.312V6.812C64.1632 6.812 64.8778 6.82804 65.3461 6.85892C65.5836 6.87457 65.7394 6.89297 65.828 6.9105C65.8767 6.92014 65.876 6.92407 65.852 6.91298C65.8408 6.90783 65.7943 6.88596 65.744 6.83625C65.6894 6.78222 65.607 6.66949 65.607 6.504H66.107H66.607C66.607 6.32251 66.517 6.19428 66.4472 6.12525C66.3818 6.06054 66.3125 6.02417 66.271 6.00502C66.1863 5.96593 66.0946 5.94386 66.022 5.9295C65.8679 5.89902 65.6597 5.87742 65.4119 5.86108C64.9095 5.82796 64.1681 5.812 63.195 5.812V6.312ZM66.107 6.504H65.607V11.208H66.107H66.607V6.504H66.107ZM66.107 11.208H65.607C65.607 11.0701 65.6662 10.9671 65.7178 10.9077C65.7643 10.854 65.8098 10.8282 65.8244 10.8203C65.853 10.8049 65.8587 10.8082 65.8126 10.8188C65.7289 10.8381 65.5772 10.8593 65.3407 10.8775C64.8752 10.9133 64.1628 10.932 63.195 10.932V11.432V11.932C64.1685 11.932 64.9122 11.9134 65.4173 11.8745C65.6662 11.8554 65.8785 11.8299 66.0374 11.7932C66.1126 11.7758 66.2094 11.7488 66.2986 11.7007C66.3537 11.671 66.607 11.5263 66.607 11.208H66.107ZM63.195 11.432V10.932C62.2375 10.932 61.531 10.916 61.0683 10.8851C60.8335 10.8695 60.68 10.8511 60.5931 10.8337C60.5451 10.8241 60.5467 10.8204 60.5714 10.8319C60.583 10.8373 60.6297 10.8596 60.6798 10.9097C60.7344 10.9643 60.815 11.0765 60.815 11.24H60.315H59.815C59.815 11.4195 59.9031 11.5472 59.9727 11.6168C60.0378 11.6819 60.107 11.7187 60.1486 11.7381C60.2333 11.7776 60.3249 11.7999 60.3969 11.8143C60.55 11.8449 60.7565 11.8665 61.0017 11.8829C61.499 11.916 62.2325 11.932 63.195 11.932V11.432ZM81.0985 28.136L80.8845 27.6841L80.8644 27.6936L80.8453 27.7049L81.0985 28.136ZM70.5705 27.176L70.2169 27.5296L70.2196 27.5322L70.5705 27.176ZM70.4745 15.016L70.1036 14.6807L70.1011 14.6835L70.4745 15.016ZM80.7145 14.312L80.3712 14.6755L80.3745 14.6786L80.7145 14.312ZM74.3145 23.464V22.964H73.8145V23.464H74.3145ZM74.8265 24.808L74.5265 25.208L74.5403 25.2184L74.5549 25.2278L74.8265 24.808ZM80.6505 24.136L80.8769 24.5818L80.9478 24.5458L81.0041 24.4896L80.6505 24.136ZM80.9385 24.584L80.4972 24.8193L80.5019 24.8277L80.9385 24.584ZM74.7305 17.928L75.0535 18.3097L75.0559 18.3076L74.7305 17.928ZM74.3145 19.976H73.8145V20.476H74.3145V19.976ZM81.0985 28.136L80.8453 27.7049C79.6006 28.4359 77.9679 28.82 75.9145 28.82V29.32V29.82C78.0851 29.82 79.9084 29.4148 81.3517 28.5671L81.0985 28.136ZM75.9145 29.32V28.82C73.9284 28.82 72.2748 28.1533 70.9214 26.8198L70.5705 27.176L70.2196 27.5322C71.7676 29.0574 73.6766 29.82 75.9145 29.82V29.32ZM70.5705 27.176L70.9241 26.8224C69.5884 25.4868 68.8945 23.6314 68.8945 21.192H68.3945H67.8945C67.8945 23.8299 68.6513 25.9639 70.2169 27.5296L70.5705 27.176ZM68.3945 21.192H68.8945C68.8945 18.7255 69.5603 16.7946 70.8479 15.3485L70.4745 15.016L70.1011 14.6835C68.6154 16.3521 67.8945 18.5385 67.8945 21.192H68.3945ZM70.4745 15.016L70.8454 15.3513C72.1569 13.9008 73.7919 13.18 75.7865 13.18V12.68V12.18C73.5144 12.18 71.6081 13.0166 70.1036 14.6807L70.4745 15.016ZM75.7865 12.68V13.18C77.8373 13.18 79.3403 13.7019 80.3712 14.6755L80.7145 14.312L81.0578 13.9485C79.7847 12.7461 78.0024 12.18 75.7865 12.18V12.68ZM80.7145 14.312L80.3745 14.6786C81.449 15.675 81.9745 16.8661 81.9745 18.28H82.4745H82.9745C82.9745 16.5792 82.3267 15.125 81.0545 13.9454L80.7145 14.312ZM82.4745 18.28H81.9745C81.9745 19.9116 81.5094 21.0495 80.6581 21.791C79.7936 22.5439 78.4451 22.964 76.5225 22.964V23.464V23.964C78.5679 23.964 80.1954 23.5201 81.3149 22.545C82.4476 21.5585 82.9745 20.1044 82.9745 18.28H82.4745ZM76.5225 23.464V22.964H74.3145V23.464V23.964H76.5225V23.464ZM74.3145 23.464H73.8145C73.8145 24.1798 74.0059 24.8175 74.5265 25.208L74.8265 24.808L75.1265 24.408C74.9645 24.2865 74.8145 24.0282 74.8145 23.464H74.3145ZM74.8265 24.808L74.5549 25.2278C75.0328 25.537 75.6667 25.66 76.3945 25.66V25.16V24.66C75.757 24.66 75.3455 24.5483 75.0981 24.3882L74.8265 24.808ZM76.3945 25.16V25.66C77.9673 25.66 79.4635 25.2997 80.8769 24.5818L80.6505 24.136L80.4241 23.6902C79.1495 24.3376 77.8084 24.66 76.3945 24.66V25.16ZM80.6505 24.136L81.0041 24.4896C80.9099 24.5837 80.7836 24.634 80.6554 24.634C80.5453 24.634 80.4646 24.5974 80.4267 24.5772C80.3548 24.5388 80.3145 24.4927 80.3119 24.4899C80.2964 24.4729 80.2969 24.4696 80.3179 24.5024C80.3544 24.5591 80.4132 24.6616 80.4973 24.8193L80.9385 24.584L81.3797 24.3487C81.2931 24.1864 81.2186 24.0542 81.1591 23.9616C81.1321 23.9197 81.094 23.8631 81.0491 23.8141C81.0318 23.7953 80.9792 23.7385 80.8973 23.6948C80.8544 23.672 80.7693 23.634 80.6554 23.634C80.5233 23.634 80.3938 23.6856 80.2969 23.7824L80.6505 24.136ZM80.9385 24.584L80.5019 24.8277C80.9961 25.7131 81.2065 26.4035 81.2065 26.92H81.7065H82.2065C82.2065 26.1565 81.9049 25.2896 81.3751 24.3403L80.9385 24.584ZM81.7065 26.92H81.2065C81.2065 27.4309 81.0493 27.6061 80.8845 27.6841L81.0985 28.136L81.3125 28.5879C81.9584 28.2819 82.2065 27.6464 82.2065 26.92H81.7065ZM77.0985 18.888H77.5985C77.5985 18.3659 77.4711 17.8819 77.1283 17.5307C76.7833 17.1773 76.304 17.044 75.7865 17.044V17.544V18.044C76.1437 18.044 76.3204 18.1347 76.4127 18.2293C76.5072 18.3261 76.5985 18.5141 76.5985 18.888H77.0985ZM75.7865 17.544V17.044C75.2658 17.044 74.7974 17.2122 74.4051 17.5484L74.7305 17.928L75.0559 18.3076C75.261 18.1318 75.4966 18.044 75.7865 18.044V17.544ZM74.7305 17.928L74.4075 17.5463C73.9869 17.9022 73.8145 18.4137 73.8145 18.984H74.3145H74.8145C74.8145 18.6157 74.9194 18.4231 75.0535 18.3097L74.7305 17.928ZM74.3145 18.984H73.8145V19.976H74.3145H74.8145V18.984H74.3145ZM74.3145 19.976V20.476H76.0425V19.976V19.476H74.3145V19.976ZM76.0425 19.976V20.476C76.4754 20.476 76.8911 20.3636 77.1933 20.0522C77.4928 19.7436 77.5985 19.3241 77.5985 18.888H77.0985H76.5985C76.5985 19.1773 76.5282 19.3017 76.4757 19.3558C76.4259 19.407 76.3136 19.476 76.0425 19.476V19.976ZM85.237 23.24L85.4958 22.8122L85.2142 22.6418L84.9464 22.8331L85.237 23.24ZM88.629 22.888L88.8385 22.434L88.8283 22.4293L88.8179 22.425L88.629 22.888ZM86.357 13.928L86.6497 14.3333L86.6497 14.3333L86.357 13.928ZM94.581 13.192L94.434 13.6699L94.4365 13.6707L94.581 13.192ZM95.573 16.392L95.1463 16.1312L95.1411 16.1401L95.573 16.392ZM94.645 17.64L94.4013 18.0766L94.6036 18.1895L94.8206 18.1082L94.645 17.64ZM91.125 18.152L90.7905 18.5236L90.8099 18.5411L90.8309 18.5564L91.125 18.152ZM92.373 18.824L92.1624 19.2775L92.1692 19.2806L92.176 19.2836L92.373 18.824ZM93.845 19.528L93.6021 19.9652L93.6121 19.9705L93.845 19.528ZM95.189 20.424L95.4994 20.032L95.4972 20.0302L95.189 20.424ZM95.029 27.752L95.3684 28.1192L95.3721 28.1157L95.029 27.752ZM85.781 28.552L85.9722 28.09L85.781 28.552ZM84.341 24.552L83.8851 24.3461L83.8799 24.3586L84.341 24.552ZM85.237 23.24L84.9782 23.6678C86.7196 24.7213 88.1853 25.308 89.333 25.308V24.808V24.308C88.4754 24.308 87.2104 23.8494 85.4958 22.8122L85.237 23.24ZM89.333 24.808V25.308C89.696 25.308 90.0574 25.2472 90.3397 25.0496C90.6546 24.8292 90.793 24.4955 90.793 24.136H90.293H89.793C89.793 24.1886 89.7837 24.2105 89.7816 24.215C89.7806 24.2171 89.7791 24.2214 89.7663 24.2304C89.7286 24.2567 89.61 24.308 89.333 24.308V24.808ZM90.293 24.136H90.793C90.793 23.9089 90.6952 23.7189 90.5883 23.5771C90.4803 23.4337 90.3363 23.3035 90.177 23.184C89.858 22.9447 89.4049 22.6954 88.8385 22.434L88.629 22.888L88.4195 23.342C88.9624 23.5926 89.3413 23.8073 89.577 23.984C89.695 24.0725 89.759 24.1382 89.7897 24.1789C89.8215 24.2211 89.793 24.2031 89.793 24.136H90.293ZM88.629 22.888L88.8179 22.425C87.5443 21.9054 86.6278 21.236 86.0293 20.4364C85.4346 19.6419 85.129 18.6861 85.129 17.544H84.629H84.129C84.129 18.8766 84.4901 20.0488 85.2287 21.0356C85.9635 22.0173 87.047 22.7826 88.4401 23.3509L88.629 22.888ZM84.629 17.544H85.129C85.129 16.1052 85.6438 15.0599 86.6497 14.3333L86.357 13.928L86.0643 13.5227C84.7662 14.4601 84.129 15.8254 84.129 17.544H84.629ZM86.357 13.928L86.6497 14.3333C87.706 13.5705 88.9763 13.18 90.485 13.18V12.68V12.18C88.7937 12.18 87.312 12.6215 86.0643 13.5227L86.357 13.928ZM90.485 12.68V13.18C92.0747 13.18 93.387 13.3477 94.434 13.6699L94.581 13.192L94.728 12.7141C93.5564 12.3536 92.138 12.18 90.485 12.18V12.68ZM94.581 13.192L94.4365 13.6707C94.975 13.8332 95.3307 14.0081 95.5425 14.1759C95.7444 14.3359 95.777 14.455 95.777 14.536H96.277H96.777C96.777 14.0623 96.5269 13.6801 96.1635 13.3921C95.81 13.1119 95.3176 12.8921 94.7255 12.7133L94.581 13.192ZM96.277 14.536H95.777C95.777 14.8619 95.6046 15.3815 95.1464 16.1313L95.573 16.392L95.9996 16.6527C96.4801 15.8665 96.777 15.1488 96.777 14.536H96.277ZM95.573 16.392L95.1411 16.1401C94.9209 16.5176 94.7423 16.7954 94.6038 16.9816C94.5342 17.0751 94.4818 17.1361 94.4454 17.1724C94.3998 17.2181 94.4099 17.1941 94.4694 17.1718L94.645 17.64L94.8206 18.1082C94.9654 18.0539 95.0782 17.9539 95.1526 17.8796C95.2362 17.7959 95.3211 17.6928 95.4062 17.5784C95.577 17.3486 95.7771 17.0344 96.0049 16.6439L95.573 16.392ZM94.645 17.64L94.8887 17.2034C93.8957 16.6492 92.8196 16.372 91.669 16.372V16.872V17.372C92.6517 17.372 93.5597 17.6068 94.4013 18.0766L94.645 17.64ZM91.669 16.872V16.372C91.3376 16.372 90.9998 16.4275 90.7333 16.6151C90.4346 16.8253 90.305 17.1429 90.305 17.48H90.805H91.305C91.305 17.4378 91.3124 17.4248 91.3109 17.428C91.3081 17.4338 91.3039 17.4363 91.3087 17.4329C91.3302 17.4178 91.4244 17.372 91.669 17.372V16.872ZM90.805 17.48H90.305C90.305 17.8958 90.486 18.2496 90.7905 18.5236L91.125 18.152L91.4595 17.7804C91.3373 17.6704 91.305 17.5762 91.305 17.48H90.805ZM91.125 18.152L90.8309 18.5564C91.1083 18.7581 91.5632 18.9993 92.1624 19.2775L92.373 18.824L92.5836 18.3705C91.9882 18.0941 91.6111 17.8873 91.4191 17.7476L91.125 18.152ZM92.373 18.824L92.176 19.2836C92.7644 19.5357 93.2383 19.7629 93.6022 19.9651L93.845 19.528L94.0878 19.0909C93.6837 18.8664 93.1763 18.6243 92.57 18.3644L92.373 18.824ZM93.845 19.528L93.6121 19.9705C93.9834 20.1659 94.406 20.4461 94.8808 20.8178L95.189 20.424L95.4972 20.0302C94.9907 19.6339 94.5172 19.3168 94.0779 19.0855L93.845 19.528ZM95.189 20.424L94.8786 20.816C95.7834 21.5323 96.225 22.4441 96.225 23.592H96.725H97.225C97.225 22.1372 96.6426 20.9371 95.4994 20.032L95.189 20.424ZM96.725 23.592H96.225C96.225 25.176 95.706 26.4259 94.6859 27.3883L95.029 27.752L95.3721 28.1157C96.6133 26.9448 97.225 25.4214 97.225 23.592H96.725ZM95.029 27.752L94.6896 27.3849C93.6873 28.3115 92.1254 28.82 89.909 28.82V29.32V29.82C92.2579 29.82 94.1094 29.2832 95.3684 28.1191L95.029 27.752ZM89.909 29.32V28.82C88.4514 28.82 87.1415 28.5738 85.9722 28.09L85.781 28.552L85.5898 29.014C86.8952 29.5542 88.3373 29.82 89.909 29.82V29.32ZM85.781 28.552L85.9722 28.09C84.8148 27.6111 84.425 27.0388 84.425 26.44H83.925H83.425C83.425 27.6332 84.2725 28.4689 85.5898 29.014L85.781 28.552ZM83.925 26.44H84.425C84.425 25.921 84.5454 25.3575 84.8021 24.7454L84.341 24.552L83.8799 24.3586C83.5819 25.0692 83.425 25.7644 83.425 26.44H83.925ZM84.341 24.552L84.7967 24.7578C85.0882 24.1124 85.3421 23.7794 85.5276 23.6469L85.237 23.24L84.9464 22.8331C84.5345 23.1273 84.1912 23.669 83.8853 24.3462L84.341 24.552ZM99.9633 6.376L100.011 6.87367L100.011 6.87367L99.9633 6.376ZM104.315 13.256H103.815V13.9303L104.46 13.7344L104.315 13.256ZM110.875 14.024L110.534 14.3898L110.539 14.394L110.875 14.024ZM109.787 29.032L109.77 29.5317L109.779 29.532H109.787V29.032ZM104.315 18.408L104.022 18.003L103.815 18.1527V18.408H104.315ZM104.315 28.776H103.815C103.815 28.5799 103.936 28.4716 103.973 28.4435C104.01 28.4161 104.028 28.4151 103.994 28.426C103.932 28.446 103.805 28.4718 103.59 28.4948C103.169 28.5399 102.519 28.564 101.627 28.564V29.064V29.564C102.527 29.564 103.221 29.5401 103.697 29.4892C103.93 29.4642 104.139 29.43 104.3 29.378C104.378 29.3529 104.481 29.3129 104.573 29.2435C104.667 29.1734 104.815 29.0201 104.815 28.776H104.315ZM101.627 29.064V28.564C100.748 28.564 100.118 28.5264 99.7184 28.459C99.5134 28.4244 99.4063 28.3878 99.363 28.3659C99.3021 28.3351 99.4713 28.3986 99.4713 28.616H98.9713H98.4713C98.4713 28.9827 98.751 29.1769 98.9115 29.2581C99.0896 29.3482 99.3144 29.4049 99.5521 29.445C100.037 29.5269 100.735 29.564 101.627 29.564V29.064ZM98.9713 28.616H99.4713V6.696H98.9713H98.4713V28.616H98.9713ZM98.9713 6.696H99.4713C99.4713 6.86883 99.3685 6.96479 99.3393 6.98736C99.3145 7.00661 99.3137 6.99889 99.3728 6.97985C99.4856 6.94344 99.6904 6.90474 100.011 6.87367L99.9633 6.376L99.9151 5.87832C99.5748 5.91126 99.2835 5.95789 99.0657 6.02814C98.9594 6.06244 98.8347 6.11338 98.7272 6.19664C98.6153 6.2832 98.4713 6.4485 98.4713 6.696H98.9713ZM99.9633 6.376L100.011 6.87367C100.664 6.81056 101.201 6.78 101.627 6.78V6.28V5.78C101.158 5.78 100.586 5.81344 99.9151 5.87832L99.9633 6.376ZM101.627 6.28V6.78C102.515 6.78 103.144 6.82831 103.538 6.9129C103.74 6.95603 103.839 7.00046 103.877 7.02459C103.907 7.04373 103.815 6.99167 103.815 6.856H104.315H104.815C104.815 6.52832 104.612 6.30827 104.418 6.18341C104.231 6.06354 103.995 5.98797 103.748 5.9351C103.247 5.82769 102.532 5.78 101.627 5.78V6.28ZM104.315 6.856H103.815V13.256H104.315H104.815V6.856H104.315ZM104.315 13.256L104.46 13.7344C105.646 13.3746 106.494 13.212 107.035 13.212V12.712V12.212C106.339 12.212 105.374 12.412 104.17 12.7776L104.315 13.256ZM107.035 12.712V13.212C108.565 13.212 109.711 13.6225 110.534 14.3898L110.875 14.024L111.216 13.6582C110.162 12.6762 108.748 12.212 107.035 12.212V12.712ZM110.875 14.024L110.539 14.394C111.313 15.0979 111.783 16.5087 111.783 18.824H112.283H112.783C112.783 16.446 112.315 14.6567 111.212 13.654L110.875 14.024ZM112.283 18.824H111.783V28.744H112.283H112.783V18.824H112.283ZM112.283 28.744H111.783C111.783 28.5639 111.887 28.4572 111.93 28.4225C111.969 28.3913 111.992 28.3878 111.964 28.3975C111.912 28.4153 111.8 28.4404 111.602 28.4633C111.215 28.5079 110.615 28.532 109.787 28.532V29.032V29.532C110.624 29.532 111.271 29.5081 111.717 29.4567C111.935 29.4316 112.134 29.3967 112.291 29.3425C112.367 29.3162 112.468 29.2737 112.558 29.2005C112.653 29.1238 112.783 28.9721 112.783 28.744H112.283ZM109.787 29.032L109.804 28.5323C108.869 28.5004 108.181 28.4582 107.732 28.4072C107.503 28.3813 107.358 28.3553 107.279 28.3336C107.235 28.3217 107.242 28.319 107.27 28.3355C107.284 28.3442 107.327 28.3708 107.37 28.4237C107.417 28.4815 107.471 28.5804 107.471 28.712H106.971H106.471C106.471 29.0154 106.704 29.1627 106.761 29.1965C106.848 29.2476 106.942 29.2783 107.016 29.2984C107.171 29.3407 107.378 29.3734 107.619 29.4008C108.108 29.4564 108.829 29.4996 109.77 29.5317L109.787 29.032ZM106.971 28.712H107.471V19.304H106.971H106.471V28.712H106.971ZM106.971 19.304H107.471C107.471 18.7429 107.383 18.2353 107.134 17.8546C106.861 17.4369 106.439 17.236 105.947 17.236V17.736V18.236C106.138 18.236 106.228 18.2964 106.297 18.4014C106.389 18.5433 106.471 18.8198 106.471 19.304H106.971ZM105.947 17.736V17.236C105.325 17.236 104.677 17.5288 104.022 18.003L104.315 18.408L104.609 18.813C105.191 18.3912 105.631 18.236 105.947 18.236V17.736ZM104.315 18.408H103.815V28.776H104.315H104.815V18.408H104.315Z" fill="black"/>
<path d="M74.7841 53.048C73.3281 53.048 72.6001 52.888 72.6001 52.568V37.016C72.6001 36.472 72.8481 36.2 73.3441 36.2H77.5681C79.9361 36.2 81.6401 36.688 82.6801 37.664C83.7361 38.64 84.2641 40.056 84.2641 41.912C84.2641 43.448 83.7681 44.856 82.7761 46.136C82.2801 46.776 81.5521 47.288 80.5921 47.672C79.6321 48.056 78.5121 48.248 77.2321 48.248V52.544C77.2321 52.736 76.9281 52.872 76.3201 52.952C75.7281 53.016 75.2161 53.048 74.7841 53.048ZM77.2321 40.376V44.168H77.5441C78.1041 44.168 78.5761 43.992 78.9601 43.64C79.3441 43.288 79.5361 42.792 79.5361 42.152C79.5361 41.512 79.4001 41.056 79.1281 40.784C78.8721 40.512 78.4081 40.376 77.7361 40.376H77.2321ZM86.6862 51.584C85.6942 50.48 85.1982 48.952 85.1982 47C85.1982 45.048 85.6942 43.52 86.6862 42.416C87.6942 41.312 89.0462 40.76 90.7422 40.76C92.4382 40.76 93.7822 41.312 94.7742 42.416C95.7662 43.52 96.2622 45.048 96.2622 47C96.2622 48.952 95.7662 50.48 94.7742 51.584C93.7822 52.688 92.4382 53.24 90.7422 53.24C89.0462 53.24 87.6942 52.688 86.6862 51.584ZM90.7422 44.768C89.8462 44.768 89.3982 45.504 89.3982 46.976C89.3982 48.448 89.8462 49.184 90.7422 49.184C91.6542 49.184 92.1102 48.448 92.1102 46.976C92.1102 45.504 91.6542 44.768 90.7422 44.768ZM98.9909 51.584C97.9989 50.48 97.5029 48.952 97.5029 47C97.5029 45.048 97.9989 43.52 98.9909 42.416C99.9989 41.312 101.351 40.76 103.047 40.76C104.743 40.76 106.087 41.312 107.079 42.416C108.071 43.52 108.567 45.048 108.567 47C108.567 48.952 108.071 50.48 107.079 51.584C106.087 52.688 104.743 53.24 103.047 53.24C101.351 53.24 99.9989 52.688 98.9909 51.584ZM103.047 44.768C102.151 44.768 101.703 45.504 101.703 46.976C101.703 48.448 102.151 49.184 103.047 49.184C103.959 49.184 104.415 48.448 104.415 46.976C104.415 45.504 103.959 44.768 103.047 44.768ZM110.264 52.16V41.096C110.264 41 110.984 40.952 112.424 40.952C113.88 40.952 114.608 40.992 114.608 41.072V53.864C114.608 55.048 114.112 55.984 113.12 56.672C112.144 57.376 110.92 57.728 109.448 57.728C107.384 57.728 106.352 57.008 106.352 55.568C106.352 55.088 106.432 54.688 106.592 54.368C106.736 54.384 106.936 54.392 107.192 54.392C108.36 54.392 109.16 54.208 109.592 53.84C110.04 53.472 110.264 52.912 110.264 52.16ZM110.264 39.68V36.224C110.264 36.064 110.984 35.984 112.424 35.984C113.88 35.984 114.608 36.032 114.608 36.128V39.656C114.608 39.768 113.88 39.824 112.424 39.824C110.984 39.824 110.264 39.776 110.264 39.68ZM118.291 44.288C117.843 43.488 117.619 42.84 117.619 42.344C117.619 41.832 117.755 41.504 118.027 41.36C118.939 40.96 120.187 40.76 121.771 40.76C123.371 40.76 124.499 41.136 125.155 41.888C125.811 42.624 126.139 43.72 126.139 45.176V48.968H126.955C127.227 48.968 127.435 49.128 127.579 49.448C127.739 49.768 127.819 50.208 127.819 50.768C127.819 51.328 127.675 51.88 127.387 52.424C127.115 52.968 126.739 53.24 126.259 53.24C125.395 53.24 124.699 53.008 124.171 52.544C123.931 52.352 123.747 52.12 123.619 51.848C122.883 52.776 121.739 53.24 120.187 53.24C119.019 53.24 118.035 52.824 117.235 51.992C116.435 51.16 116.035 50.176 116.035 49.04C116.035 46.432 117.595 45.128 120.715 45.128H122.035V44.888C122.035 44.472 121.963 44.208 121.819 44.096C121.691 43.968 121.379 43.904 120.883 43.904C120.275 43.904 119.411 44.032 118.291 44.288ZM120.211 48.704C120.211 49.056 120.307 49.328 120.499 49.52C120.691 49.696 120.931 49.784 121.219 49.784C121.523 49.784 121.795 49.664 122.035 49.424V47.576H121.363C120.595 47.576 120.211 47.952 120.211 48.704ZM134.434 52.976C134.434 53.088 133.706 53.144 132.25 53.144C130.794 53.112 130.066 53.048 130.066 52.952V44.984H129.418C129.162 44.984 128.954 44.832 128.794 44.528C128.65 44.208 128.578 43.816 128.578 43.352C128.578 41.624 129.09 40.76 130.114 40.76C130.834 40.76 131.434 40.984 131.914 41.432C132.394 41.864 132.634 42.36 132.634 42.92C132.97 42.264 133.418 41.744 133.978 41.36C134.554 40.96 135.138 40.76 135.73 40.76C136.658 40.76 137.218 41 137.41 41.48C137.458 41.608 137.482 41.8 137.482 42.056C137.482 42.296 137.402 42.736 137.242 43.376C137.098 44.016 136.946 44.48 136.786 44.768C136.626 45.056 136.53 45.2 136.498 45.2C136.466 45.2 136.314 45.144 136.042 45.032C135.786 44.904 135.554 44.84 135.346 44.84C134.738 44.84 134.434 45.32 134.434 46.28V52.976ZM137.853 41.12C137.853 40.944 138.581 40.856 140.037 40.856C141.509 40.856 142.269 40.936 142.317 41.096L144.045 46.76L145.701 41.048C145.765 40.92 146.261 40.856 147.189 40.856C149.317 40.856 150.333 40.96 150.237 41.168L144.597 57.224C144.581 57.32 144.141 57.368 143.277 57.368C142.429 57.368 141.637 57.336 140.901 57.272C140.165 57.224 139.813 57.16 139.845 57.08L141.933 52.04L137.853 41.12Z" fill="white"/>
<path d="M82.6801 37.664L82.3379 38.0286L82.3407 38.0312L82.6801 37.664ZM82.7761 46.136L83.1713 46.4423L83.1713 46.4423L82.7761 46.136ZM80.5921 47.672L80.4064 47.2078L80.4064 47.2078L80.5921 47.672ZM77.2321 48.248V47.748H76.7321V48.248H77.2321ZM76.3201 52.952L76.3738 53.4492L76.3853 53.4477L76.3201 52.952ZM77.2321 40.376V39.876H76.7321V40.376H77.2321ZM77.2321 44.168H76.7321V44.668H77.2321V44.168ZM78.9601 43.64L79.298 44.0086L79.298 44.0086L78.9601 43.64ZM79.1281 40.784L78.764 41.1267L78.7692 41.1322L78.7745 41.1376L79.1281 40.784ZM74.7841 53.048V52.548C74.0649 52.548 73.5629 52.5077 73.2534 52.4397C73.095 52.4048 73.0278 52.3711 73.0118 52.3606C73.0051 52.3561 73.1001 52.4224 73.1001 52.568H72.6001H72.1001C72.1001 52.8736 72.2861 53.0799 72.4614 53.1954C72.6274 53.3049 72.8332 53.3712 73.0388 53.4163C73.4573 53.5083 74.0473 53.548 74.7841 53.548V53.048ZM72.6001 52.568H73.1001V37.016H72.6001H72.1001V52.568H72.6001ZM72.6001 37.016H73.1001C73.1001 36.8102 73.148 36.7492 73.1556 36.7409C73.1592 36.7369 73.167 36.7291 73.1903 36.7206C73.2164 36.7111 73.2645 36.7 73.3441 36.7V36.2V35.7C73.0065 35.7 72.665 35.7947 72.4166 36.0671C72.1762 36.3308 72.1001 36.6778 72.1001 37.016H72.6001ZM73.3441 36.2V36.7H77.5681V36.2V35.7H73.3441V36.2ZM77.5681 36.2V36.7C79.8877 36.7 81.4354 37.1816 82.3379 38.0286L82.6801 37.664L83.0223 37.2994C81.8448 36.1944 79.9844 35.7 77.5681 35.7V36.2ZM82.6801 37.664L82.3407 38.0312C83.2666 38.8869 83.7641 40.1525 83.7641 41.912H84.2641H84.7641C84.7641 39.9595 84.2056 38.3931 83.0195 37.2968L82.6801 37.664ZM84.2641 41.912H83.7641C83.7641 43.3308 83.3089 44.6323 82.3809 45.8297L82.7761 46.136L83.1713 46.4423C84.2273 45.0797 84.7641 43.5652 84.7641 41.912H84.2641ZM82.7761 46.136L82.3809 45.8297C81.9526 46.3824 81.3062 46.8478 80.4064 47.2078L80.5921 47.672L80.7778 48.1362C81.7979 47.7282 82.6076 47.1696 83.1713 46.4423L82.7761 46.136ZM80.5921 47.672L80.4064 47.2078C79.5177 47.5632 78.4631 47.748 77.2321 47.748V48.248V48.748C78.5611 48.748 79.7465 48.5487 80.7778 48.1362L80.5921 47.672ZM77.2321 48.248H76.7321V52.544H77.2321H77.7321V48.248H77.2321ZM77.2321 52.544H76.7321C76.7321 52.4454 76.7758 52.3728 76.8084 52.3376C76.8329 52.3112 76.8418 52.3149 76.7999 52.3336C76.7147 52.3717 76.544 52.4182 76.2549 52.4563L76.3201 52.952L76.3853 53.4477C76.7042 53.4058 76.9895 53.3443 77.2083 53.2464C77.3993 53.161 77.7321 52.9553 77.7321 52.544H77.2321ZM76.3201 52.952L76.2664 52.4549C75.6861 52.5176 75.1929 52.548 74.7841 52.548V53.048V53.548C75.2393 53.548 75.7701 53.5144 76.3738 53.4491L76.3201 52.952ZM77.2321 40.376H76.7321V44.168H77.2321H77.7321V40.376H77.2321ZM77.2321 44.168V44.668H77.5441V44.168V43.668H77.2321V44.168ZM77.5441 44.168V44.668C78.2189 44.668 78.8145 44.4518 79.298 44.0086L78.9601 43.64L78.6222 43.2714C78.3377 43.5322 77.9892 43.668 77.5441 43.668V44.168ZM78.9601 43.64L79.298 44.0086C79.8082 43.5408 80.0361 42.8976 80.0361 42.152H79.5361H79.0361C79.0361 42.6864 78.88 43.0352 78.6222 43.2714L78.9601 43.64ZM79.5361 42.152H80.0361C80.0361 41.4627 79.8933 40.8421 79.4816 40.4304L79.1281 40.784L78.7745 41.1376C78.9069 41.2699 79.0361 41.5613 79.0361 42.152H79.5361ZM79.1281 40.784L79.4922 40.4413C79.0894 40.0134 78.4444 39.876 77.7361 39.876V40.376V40.876C78.3718 40.876 78.6547 41.0106 78.764 41.1267L79.1281 40.784ZM77.7361 40.376V39.876H77.2321V40.376V40.876H77.7361V40.376ZM86.6862 51.584L86.3143 51.9182L86.317 51.9211L86.6862 51.584ZM86.6862 42.416L86.317 42.0789L86.3143 42.0818L86.6862 42.416ZM94.7742 42.416L94.4023 42.7502L94.4023 42.7502L94.7742 42.416ZM94.7742 51.584L94.4023 51.2498L94.4023 51.2498L94.7742 51.584ZM86.6862 51.584L87.0581 51.2498C86.1718 50.2634 85.6982 48.8683 85.6982 47H85.1982H84.6982C84.6982 49.0357 85.2167 50.6966 86.3143 51.9182L86.6862 51.584ZM85.1982 47H85.6982C85.6982 45.1317 86.1718 43.7366 87.0581 42.7502L86.6862 42.416L86.3143 42.0818C85.2167 43.3034 84.6982 44.9643 84.6982 47H85.1982ZM86.6862 42.416L87.0555 42.7531C87.9555 41.7674 89.1658 41.26 90.7422 41.26V40.76V40.26C88.9266 40.26 87.4329 40.8566 86.317 42.0789L86.6862 42.416ZM90.7422 40.76V41.26C92.3187 41.26 93.5191 41.7673 94.4023 42.7502L94.7742 42.416L95.1461 42.0818C94.0453 40.8567 92.5577 40.26 90.7422 40.26V40.76ZM94.7742 42.416L94.4023 42.7502C95.2887 43.7366 95.7622 45.1317 95.7622 47H96.2622H96.7622C96.7622 44.9643 96.2438 43.3034 95.1461 42.0818L94.7742 42.416ZM96.2622 47H95.7622C95.7622 48.8683 95.2887 50.2634 94.4023 51.2498L94.7742 51.584L95.1461 51.9182C96.2438 50.6966 96.7622 49.0357 96.7622 47H96.2622ZM94.7742 51.584L94.4023 51.2498C93.5191 52.2327 92.3187 52.74 90.7422 52.74V53.24V53.74C92.5577 53.74 94.0453 53.1433 95.1461 51.9182L94.7742 51.584ZM90.7422 53.24V52.74C89.1658 52.74 87.9555 52.2326 87.0555 51.2469L86.6862 51.584L86.317 51.9211C87.4329 53.1434 88.9266 53.74 90.7422 53.74V53.24ZM90.7422 44.768V44.268C90.1282 44.268 89.6262 44.5359 89.3071 45.06C89.0125 45.544 88.8982 46.2056 88.8982 46.976H89.3982H89.8982C89.8982 46.2744 90.0079 45.832 90.1613 45.58C90.2903 45.3681 90.4602 45.268 90.7422 45.268V44.768ZM89.3982 46.976H88.8982C88.8982 47.7464 89.0125 48.408 89.3071 48.892C89.6262 49.4161 90.1282 49.684 90.7422 49.684V49.184V48.684C90.4602 48.684 90.2903 48.5839 90.1613 48.372C90.0079 48.12 89.8982 47.6776 89.8982 46.976H89.3982ZM90.7422 49.184V49.684C91.3601 49.684 91.8684 49.4197 92.1933 48.8953C92.4937 48.4105 92.6102 47.7474 92.6102 46.976H92.1102H91.6102C91.6102 47.6766 91.4988 48.1175 91.3432 48.3687C91.2121 48.5803 91.0363 48.684 90.7422 48.684V49.184ZM92.1102 46.976H92.6102C92.6102 46.2046 92.4937 45.5415 92.1933 45.0567C91.8684 44.5323 91.3601 44.268 90.7422 44.268V44.768V45.268C91.0363 45.268 91.2121 45.3717 91.3432 45.5833C91.4988 45.8345 91.6102 46.2754 91.6102 46.976H92.1102ZM98.9909 51.584L98.619 51.9182L98.6217 51.9211L98.9909 51.584ZM98.9909 42.416L98.6217 42.0789L98.619 42.0818L98.9909 42.416ZM107.079 42.416L106.707 42.7502L106.707 42.7502L107.079 42.416ZM107.079 51.584L106.707 51.2498L106.707 51.2498L107.079 51.584ZM98.9909 51.584L99.3628 51.2498C98.4765 50.2634 98.0029 48.8683 98.0029 47H97.5029H97.0029C97.0029 49.0357 97.5214 50.6966 98.619 51.9182L98.9909 51.584ZM97.5029 47H98.0029C98.0029 45.1317 98.4765 43.7366 99.3628 42.7502L98.9909 42.416L98.619 42.0818C97.5214 43.3034 97.0029 44.9643 97.0029 47H97.5029ZM98.9909 42.416L99.3601 42.7531C100.26 41.7674 101.471 41.26 103.047 41.26V40.76V40.26C101.231 40.26 99.7376 40.8566 98.6217 42.0789L98.9909 42.416ZM103.047 40.76V41.26C104.623 41.26 105.824 41.7673 106.707 42.7502L107.079 42.416L107.451 42.0818C106.35 40.8567 104.862 40.26 103.047 40.26V40.76ZM107.079 42.416L106.707 42.7502C107.593 43.7366 108.067 45.1317 108.067 47H108.567H109.067C109.067 44.9643 108.548 43.3034 107.451 42.0818L107.079 42.416ZM108.567 47H108.067C108.067 48.8683 107.593 50.2634 106.707 51.2498L107.079 51.584L107.451 51.9182C108.548 50.6966 109.067 49.0357 109.067 47H108.567ZM107.079 51.584L106.707 51.2498C105.824 52.2327 104.623 52.74 103.047 52.74V53.24V53.74C104.862 53.74 106.35 53.1433 107.451 51.9182L107.079 51.584ZM103.047 53.24V52.74C101.471 52.74 100.26 52.2326 99.3601 51.2469L98.9909 51.584L98.6217 51.9211C99.7376 53.1434 101.231 53.74 103.047 53.74V53.24ZM103.047 44.768V44.268C102.433 44.268 101.931 44.5359 101.612 45.06C101.317 45.544 101.203 46.2056 101.203 46.976H101.703H102.203C102.203 46.2744 102.313 45.832 102.466 45.58C102.595 45.3681 102.765 45.268 103.047 45.268V44.768ZM101.703 46.976H101.203C101.203 47.7464 101.317 48.408 101.612 48.892C101.931 49.4161 102.433 49.684 103.047 49.684V49.184V48.684C102.765 48.684 102.595 48.5839 102.466 48.372C102.313 48.12 102.203 47.6776 102.203 46.976H101.703ZM103.047 49.184V49.684C103.665 49.684 104.173 49.4197 104.498 48.8953C104.798 48.4105 104.915 47.7474 104.915 46.976H104.415H103.915C103.915 47.6766 103.803 48.1175 103.648 48.3687C103.517 48.5803 103.341 48.684 103.047 48.684V49.184ZM104.415 46.976H104.915C104.915 46.2046 104.798 45.5415 104.498 45.0567C104.173 44.5323 103.665 44.268 103.047 44.268V44.768V45.268C103.341 45.268 103.517 45.3717 103.648 45.5833C103.803 45.8345 103.915 46.2754 103.915 46.976H104.415ZM113.12 56.672L112.835 56.2611L112.827 56.2665L113.12 56.672ZM106.592 54.368L106.647 53.8711L106.3 53.8326L106.144 54.1444L106.592 54.368ZM109.592 53.84L109.274 53.4536L109.267 53.4594L109.592 53.84ZM110.264 52.16H110.764V41.096H110.264H109.764V52.16H110.264ZM110.264 41.096H110.764C110.764 41.2615 110.682 41.3756 110.626 41.4321C110.574 41.4841 110.524 41.5082 110.509 41.5153C110.477 41.5304 110.464 41.5299 110.497 41.5233C110.554 41.5119 110.662 41.4985 110.837 41.4869C111.18 41.464 111.706 41.452 112.424 41.452V40.952V40.452C111.701 40.452 111.148 40.464 110.77 40.4891C110.585 40.5015 110.424 40.5181 110.301 40.5427C110.243 40.5541 110.163 40.5731 110.086 40.6092C110.048 40.6268 109.982 40.6617 109.918 40.725C109.851 40.7928 109.764 40.9185 109.764 41.096H110.264ZM112.424 40.952V41.452C113.15 41.452 113.684 41.462 114.034 41.4812C114.212 41.491 114.326 41.5024 114.39 41.5128C114.426 41.5188 114.42 41.5204 114.394 41.5105C114.383 41.5065 114.335 41.4879 114.281 41.4433C114.228 41.3992 114.108 41.2763 114.108 41.072H114.608H115.108C115.108 40.8577 114.982 40.7251 114.917 40.6716C114.852 40.6177 114.786 40.59 114.753 40.5772C114.682 40.5498 114.607 40.5352 114.552 40.5262C114.434 40.5066 114.275 40.493 114.089 40.4828C113.711 40.462 113.154 40.452 112.424 40.452V40.952ZM114.608 41.072H114.108V53.864H114.608H115.108V41.072H114.608ZM114.608 53.864H114.108C114.108 54.8803 113.695 55.6644 112.835 56.2611L113.12 56.672L113.405 57.0829C114.528 56.3036 115.108 55.2157 115.108 53.864H114.608ZM113.12 56.672L112.827 56.2665C111.954 56.8964 110.838 57.228 109.448 57.228V57.728V58.228C111.001 58.228 112.333 57.8556 113.412 57.0775L113.12 56.672ZM109.448 57.728V57.228C108.458 57.228 107.805 57.0527 107.412 56.7779C107.051 56.526 106.852 56.1518 106.852 55.568H106.352H105.852C105.852 56.4242 106.169 57.13 106.84 57.5981C107.478 58.0433 108.373 58.228 109.448 58.228V57.728ZM106.352 55.568H106.852C106.852 55.1403 106.923 54.8226 107.039 54.5916L106.592 54.368L106.144 54.1444C105.94 54.5534 105.852 55.0357 105.852 55.568H106.352ZM106.592 54.368L106.536 54.8649C106.707 54.884 106.929 54.892 107.192 54.892V54.392V53.892C106.942 53.892 106.764 53.884 106.647 53.8711L106.592 54.368ZM107.192 54.392V54.892C108.373 54.892 109.337 54.7139 109.916 54.2206L109.592 53.84L109.267 53.4594C108.982 53.7021 108.346 53.892 107.192 53.892V54.392ZM109.592 53.84L109.909 54.2264C110.505 53.7367 110.764 53.0137 110.764 52.16H110.264H109.764C109.764 52.8103 109.574 53.2073 109.274 53.4536L109.592 53.84ZM110.264 39.68H110.764V36.224H110.264H109.764V39.68H110.264ZM110.264 36.224H110.764C110.764 36.4162 110.649 36.5275 110.604 36.5624C110.562 36.5952 110.535 36.6007 110.557 36.5933C110.596 36.5804 110.688 36.5599 110.859 36.5409C111.19 36.5041 111.708 36.484 112.424 36.484V35.984V35.484C111.699 35.484 111.137 35.5039 110.748 35.5471C110.559 35.5681 110.382 35.5976 110.24 35.6447C110.172 35.6673 110.078 35.7053 109.99 35.7731C109.901 35.843 109.764 35.9918 109.764 36.224H110.264ZM112.424 35.984V36.484C113.149 36.484 113.682 36.496 114.029 36.5189C114.206 36.5306 114.316 36.544 114.374 36.5555C114.408 36.5621 114.396 36.5628 114.364 36.5482C114.349 36.5413 114.3 36.5176 114.247 36.4661C114.191 36.4102 114.108 36.2955 114.108 36.128H114.608H115.108C115.108 35.9485 115.019 35.8222 114.951 35.7551C114.887 35.6922 114.821 35.6577 114.783 35.6403C114.706 35.6047 114.626 35.5859 114.568 35.5745C114.444 35.55 114.282 35.5334 114.094 35.5211C113.713 35.496 113.154 35.484 112.424 35.484V35.984ZM114.608 36.128H114.108V39.656H114.608H115.108V36.128H114.608ZM114.608 39.656H114.108C114.108 39.3704 114.334 39.2563 114.336 39.2551C114.373 39.2357 114.39 39.2352 114.359 39.2423C114.305 39.2546 114.199 39.2699 114.023 39.2835C113.679 39.3099 113.149 39.324 112.424 39.324V39.824V40.324C113.154 40.324 113.716 40.3101 114.1 40.2805C114.288 40.2661 114.455 40.2464 114.584 40.2167C114.644 40.2028 114.729 40.1795 114.811 40.1356C114.858 40.11 115.108 39.9696 115.108 39.656H114.608ZM112.424 39.824V39.324C111.706 39.324 111.18 39.312 110.837 39.2891C110.662 39.2775 110.554 39.2641 110.497 39.2527C110.464 39.2461 110.477 39.2456 110.509 39.2607C110.524 39.2678 110.574 39.2919 110.626 39.3439C110.682 39.4004 110.764 39.5145 110.764 39.68H110.264H109.764C109.764 39.8575 109.851 39.9832 109.918 40.051C109.982 40.1143 110.048 40.1492 110.086 40.1668C110.163 40.2029 110.243 40.2219 110.301 40.2333C110.424 40.2579 110.585 40.2745 110.77 40.2869C111.148 40.312 111.701 40.324 112.424 40.324V39.824ZM118.291 44.288L117.855 44.5323L118.038 44.8588L118.403 44.7754L118.291 44.288ZM118.027 41.36L117.826 40.9021L117.81 40.9095L117.793 40.9181L118.027 41.36ZM125.155 41.888L124.778 42.2167L124.782 42.2207L125.155 41.888ZM126.139 48.968H125.639V49.468H126.139V48.968ZM127.579 49.448L127.123 49.6532L127.127 49.6625L127.132 49.6716L127.579 49.448ZM127.387 52.424L126.945 52.19L126.94 52.2004L127.387 52.424ZM124.171 52.544L124.501 52.1684L124.493 52.1608L124.484 52.1536L124.171 52.544ZM123.619 51.848L124.072 51.6351L123.728 50.9057L123.227 51.5373L123.619 51.848ZM117.235 51.992L117.596 51.6454L117.235 51.992ZM122.035 45.128V45.628H122.535V45.128H122.035ZM121.819 44.096L121.466 44.4496L121.488 44.4716L121.512 44.4907L121.819 44.096ZM120.499 49.52L120.146 49.8736L120.153 49.8812L120.161 49.8886L120.499 49.52ZM122.035 49.424L122.389 49.7776L122.535 49.6311V49.424H122.035ZM122.035 47.576H122.535V47.076H122.035V47.576ZM118.291 44.288L118.727 44.0437C118.291 43.2648 118.119 42.709 118.119 42.344H117.619H117.119C117.119 42.971 117.395 43.7112 117.855 44.5323L118.291 44.288ZM117.619 42.344H118.119C118.119 41.8875 118.242 41.8119 118.261 41.8019L118.027 41.36L117.793 40.9181C117.268 41.1961 117.119 41.7765 117.119 42.344H117.619ZM118.027 41.36L118.228 41.8179C119.05 41.4572 120.22 41.26 121.771 41.26V40.76V40.26C120.154 40.26 118.828 40.4628 117.826 40.9021L118.027 41.36ZM121.771 40.76V41.26C123.312 41.26 124.262 41.6247 124.778 42.2167L125.155 41.888L125.532 41.5593C124.736 40.6473 123.43 40.26 121.771 40.26V40.76ZM125.155 41.888L124.782 42.2207C125.325 42.8299 125.639 43.7855 125.639 45.176H126.139H126.639C126.639 43.6545 126.297 42.4181 125.528 41.5553L125.155 41.888ZM126.139 45.176H125.639V48.968H126.139H126.639V45.176H126.139ZM126.139 48.968V49.468H126.955V48.968V48.468H126.139V48.968ZM126.955 48.968V49.468C126.985 49.468 126.997 49.4741 127.01 49.4843C127.031 49.5 127.074 49.544 127.123 49.6532L127.579 49.448L128.035 49.2428C127.94 49.032 127.808 48.836 127.62 48.6917C127.425 48.5419 127.197 48.468 126.955 48.468V48.968ZM127.579 49.448L127.132 49.6716C127.243 49.8939 127.319 50.2461 127.319 50.768H127.819H128.319C128.319 50.1699 128.235 49.6421 128.026 49.2244L127.579 49.448ZM127.819 50.768H127.319C127.319 51.2386 127.199 51.7108 126.945 52.1901L127.387 52.424L127.829 52.6579C128.151 52.0492 128.319 51.4174 128.319 50.768H127.819ZM127.387 52.424L126.94 52.2004C126.726 52.6289 126.496 52.74 126.259 52.74V53.24V53.74C126.982 53.74 127.505 53.3071 127.834 52.6476L127.387 52.424ZM126.259 53.24V52.74C125.488 52.74 124.918 52.5349 124.501 52.1684L124.171 52.544L123.841 52.9196C124.48 53.4811 125.303 53.74 126.259 53.74V53.24ZM124.171 52.544L124.484 52.1536C124.302 52.0082 124.166 51.8364 124.072 51.6351L123.619 51.848L123.167 52.0609C123.328 52.4036 123.561 52.6958 123.859 52.9344L124.171 52.544ZM123.619 51.848L123.227 51.5373C122.614 52.3107 121.638 52.74 120.187 52.74V53.24V53.74C121.841 53.74 123.152 53.2413 124.011 52.1587L123.619 51.848ZM120.187 53.24V52.74C119.153 52.74 118.3 52.3781 117.596 51.6454L117.235 51.992L116.875 52.3386C117.77 53.2699 118.885 53.74 120.187 53.74V53.24ZM117.235 51.992L117.596 51.6454C116.884 50.9049 116.535 50.0445 116.535 49.04H116.035H115.535C115.535 50.3075 115.987 51.4151 116.875 52.3386L117.235 51.992ZM116.035 49.04H116.535C116.535 47.839 116.89 47.021 117.526 46.4896C118.179 45.9439 119.213 45.628 120.715 45.628V45.128V44.628C119.098 44.628 117.792 44.9641 116.885 45.7224C115.96 46.495 115.535 47.633 115.535 49.04H116.035ZM120.715 45.128V45.628H122.035V45.128V44.628H120.715V45.128ZM122.035 45.128H122.535V44.888H122.035H121.535V45.128H122.035ZM122.035 44.888H122.535C122.535 44.6561 122.516 44.4374 122.464 44.2464C122.413 44.0597 122.317 43.8496 122.126 43.7013L121.819 44.096L121.512 44.4907C121.466 44.4544 121.478 44.4323 121.499 44.5096C121.519 44.5826 121.535 44.7039 121.535 44.888H122.035ZM121.819 44.096L122.173 43.7424C122.005 43.5743 121.778 43.5008 121.59 43.4622C121.388 43.4208 121.149 43.404 120.883 43.404V43.904V44.404C121.114 44.404 121.279 44.4192 121.389 44.4418C121.513 44.4672 121.506 44.4897 121.466 44.4496L121.819 44.096ZM120.883 43.904V43.404C120.218 43.404 119.31 43.5422 118.18 43.8006L118.291 44.288L118.403 44.7754C119.512 44.5218 120.332 44.404 120.883 44.404V43.904ZM120.211 48.704H119.711C119.711 49.1476 119.834 49.5623 120.146 49.8736L120.499 49.52L120.853 49.1664C120.78 49.0937 120.711 48.9644 120.711 48.704H120.211ZM120.499 49.52L120.161 49.8886C120.456 50.1583 120.82 50.284 121.219 50.284V49.784V49.284C121.042 49.284 120.927 49.2337 120.837 49.1514L120.499 49.52ZM121.219 49.784V50.284C121.672 50.284 122.067 50.0994 122.389 49.7776L122.035 49.424L121.682 49.0704C121.523 49.2286 121.375 49.284 121.219 49.284V49.784ZM122.035 49.424H122.535V47.576H122.035H121.535V49.424H122.035ZM122.035 47.576V47.076H121.363V47.576V48.076H122.035V47.576ZM121.363 47.576V47.076C120.905 47.076 120.469 47.1882 120.149 47.5007C119.828 47.8152 119.711 48.2482 119.711 48.704H120.211H120.711C120.711 48.4078 120.786 48.2768 120.849 48.2153C120.914 48.1518 121.054 48.076 121.363 48.076V47.576ZM132.25 53.144L132.239 53.644H132.25V53.144ZM130.066 44.984H130.566V44.484H130.066V44.984ZM128.794 44.528L128.338 44.7332L128.344 44.7472L128.351 44.7609L128.794 44.528ZM131.914 41.432L131.572 41.7976L131.579 41.8036L131.914 41.432ZM132.634 42.92H132.134L133.079 43.1479L132.634 42.92ZM133.978 41.36L134.26 41.7724L134.263 41.7707L133.978 41.36ZM137.41 41.48L137.878 41.3044L137.874 41.2943L137.41 41.48ZM137.242 43.376L136.756 43.2547L136.754 43.2662L137.242 43.376ZM136.042 45.032L135.818 45.4792L135.834 45.4874L135.851 45.4943L136.042 45.032ZM134.434 52.976H133.934C133.934 52.6904 134.16 52.5763 134.162 52.5751C134.199 52.5557 134.216 52.5552 134.185 52.5623C134.131 52.5746 134.025 52.5899 133.849 52.6035C133.505 52.6299 132.975 52.644 132.25 52.644V53.144V53.644C132.981 53.644 133.542 53.6301 133.926 53.6005C134.114 53.5861 134.281 53.5664 134.41 53.5367C134.47 53.5228 134.555 53.4995 134.637 53.4556C134.684 53.43 134.934 53.2896 134.934 52.976H134.434ZM132.25 53.144L132.261 52.6441C131.535 52.6282 131.002 52.6044 130.655 52.5739C130.479 52.5584 130.368 52.5425 130.309 52.5297C130.276 52.5223 130.287 52.5217 130.317 52.5364C130.332 52.5433 130.379 52.5672 130.43 52.618C130.483 52.6724 130.566 52.7858 130.566 52.952H130.066H129.566C129.566 53.1302 129.654 53.2553 129.719 53.3212C129.78 53.3836 129.845 53.4187 129.882 53.4366C129.958 53.4733 130.037 53.4937 130.095 53.5063C130.218 53.5335 130.381 53.5536 130.568 53.5701C130.949 53.6036 131.508 53.6278 132.239 53.6439L132.25 53.144ZM130.066 52.952H130.566V44.984H130.066H129.566V52.952H130.066ZM130.066 44.984V44.484H129.418V44.984V45.484H130.066V44.984ZM129.418 44.984V44.484C129.396 44.484 129.384 44.4802 129.365 44.4663C129.339 44.4477 129.292 44.4012 129.236 44.2951L128.794 44.528L128.351 44.7609C128.563 45.1642 128.913 45.484 129.418 45.484V44.984ZM128.794 44.528L129.25 44.3228C129.142 44.0846 129.078 43.767 129.078 43.352H128.578H128.078C128.078 43.865 128.157 44.3314 128.338 44.7332L128.794 44.528ZM128.578 43.352H129.078C129.078 42.521 129.204 41.9804 129.392 41.6629C129.556 41.3865 129.774 41.26 130.114 41.26V40.76V40.26C129.429 40.26 128.88 40.5655 128.532 41.1531C128.208 41.6996 128.078 42.455 128.078 43.352H128.578ZM130.114 40.76V41.26C130.72 41.26 131.194 41.4446 131.572 41.7975L131.914 41.432L132.255 41.0665C131.673 40.5234 130.947 40.26 130.114 40.26V40.76ZM131.914 41.432L131.579 41.8036C131.972 42.1568 132.134 42.524 132.134 42.92H132.634H133.134C133.134 42.196 132.816 41.5712 132.248 41.0604L131.914 41.432ZM132.634 42.92L133.079 43.1479C133.38 42.5595 133.775 42.1054 134.26 41.7724L133.978 41.36L133.695 40.9476C133.061 41.3826 132.559 41.9685 132.189 42.6921L132.634 42.92ZM133.978 41.36L134.263 41.7707C134.771 41.4178 135.257 41.26 135.73 41.26V40.76V40.26C135.018 40.26 134.336 40.5021 133.692 40.9493L133.978 41.36ZM135.73 40.76V41.26C136.627 41.26 136.878 41.497 136.945 41.6657L137.41 41.48L137.874 41.2943C137.557 40.503 136.688 40.26 135.73 40.26V40.76ZM137.41 41.48L136.941 41.6556C136.957 41.6978 136.982 41.817 136.982 42.056H137.482H137.982C137.982 41.783 137.958 41.5182 137.878 41.3044L137.41 41.48ZM137.482 42.056H136.982C136.982 42.2256 136.918 42.6083 136.757 43.2547L137.242 43.376L137.727 43.4973C137.885 42.8637 137.982 42.3664 137.982 42.056H137.482ZM137.242 43.376L136.754 43.2662C136.612 43.8962 136.472 44.3023 136.349 44.5252L136.786 44.768L137.223 45.0108C137.419 44.6577 137.583 44.1358 137.729 43.4858L137.242 43.376ZM136.786 44.768L136.349 44.5252C136.27 44.6659 136.214 44.7598 136.178 44.8146C136.158 44.844 136.153 44.8486 136.16 44.8408C136.163 44.8379 136.181 44.8171 136.213 44.7932C136.229 44.7809 136.258 44.7607 136.299 44.7424C136.339 44.7246 136.408 44.7 136.498 44.7V45.2V45.7C136.67 45.7 136.785 45.6136 136.813 45.5932C136.857 45.5604 136.889 45.5261 136.907 45.5052C136.946 45.4614 136.981 45.412 137.01 45.3693C137.069 45.2802 137.141 45.1581 137.223 45.0108L136.786 44.768ZM136.498 45.2V44.7C136.529 44.7 136.553 44.7032 136.564 44.7048C136.576 44.7067 136.586 44.7086 136.59 44.7097C136.599 44.7116 136.602 44.7127 136.597 44.7112C136.587 44.7082 136.567 44.7014 136.533 44.6888C136.465 44.6641 136.366 44.6249 136.232 44.5697L136.042 45.032L135.851 45.4943C135.989 45.5511 136.102 45.5959 136.187 45.6272C136.229 45.6426 136.269 45.6568 136.306 45.6678C136.316 45.671 136.403 45.7 136.498 45.7V45.2ZM136.042 45.032L136.265 44.5848C135.965 44.4344 135.655 44.34 135.346 44.34V44.84V45.34C135.452 45.34 135.607 45.3736 135.818 45.4792L136.042 45.032ZM135.346 44.84V44.34C134.885 44.34 134.49 44.536 134.239 44.9325C134.013 45.2904 133.934 45.7633 133.934 46.28H134.434H134.934C134.934 45.8367 135.007 45.5896 135.084 45.4675C135.137 45.384 135.199 45.34 135.346 45.34V44.84ZM134.434 46.28H133.934V52.976H134.434H134.934V46.28H134.434ZM137.853 41.12H137.353V41.2104L137.385 41.295L137.853 41.12ZM142.317 41.096L141.838 41.2397L141.839 41.2419L142.317 41.096ZM144.045 46.76L143.567 46.9059L144.057 48.5135L144.526 46.8992L144.045 46.76ZM145.701 41.048L145.254 40.8244L145.234 40.8651L145.221 40.9088L145.701 41.048ZM150.237 41.168L149.783 40.9585L149.773 40.98L149.766 41.0023L150.237 41.168ZM144.597 57.224L144.126 57.0583L144.111 57.0991L144.104 57.1418L144.597 57.224ZM140.901 57.272L140.945 56.7738L140.934 56.7731L140.901 57.272ZM139.845 57.08L139.383 56.8886L139.381 56.8943L139.845 57.08ZM141.933 52.04L142.395 52.2314L142.471 52.0495L142.402 51.865L141.933 52.04ZM137.853 41.12H138.353C138.353 41.2924 138.258 41.3996 138.21 41.4398C138.169 41.4752 138.14 41.4818 138.16 41.4745C138.197 41.4613 138.288 41.4391 138.459 41.4184C138.792 41.3781 139.314 41.356 140.037 41.356V40.856V40.356C139.305 40.356 138.734 40.3779 138.339 40.4256C138.147 40.4489 137.965 40.4817 137.819 40.5345C137.748 40.5601 137.652 40.6025 137.564 40.6764C137.471 40.7551 137.353 40.9036 137.353 41.12H137.853ZM140.037 40.856V41.356C140.769 41.356 141.306 41.3761 141.659 41.4133C141.839 41.4322 141.948 41.4534 142.005 41.4703C142.035 41.4791 142.027 41.4802 142.003 41.4648C141.985 41.454 141.883 41.3888 141.838 41.2397L142.317 41.096L142.796 40.9523C142.739 40.7632 142.603 40.6605 142.529 40.6147C142.448 40.5643 142.361 40.5329 142.29 40.5117C142.145 40.4686 141.964 40.4398 141.764 40.4187C141.357 40.3759 140.778 40.356 140.037 40.356V40.856ZM142.317 41.096L141.839 41.2419L143.567 46.9059L144.045 46.76L144.524 46.6141L142.796 40.9501L142.317 41.096ZM144.045 46.76L144.526 46.8992L146.182 41.1872L145.701 41.048L145.221 40.9088L143.565 46.6208L144.045 46.76ZM145.701 41.048L146.148 41.2716C146.103 41.3623 146.041 41.4074 146.018 41.422C145.994 41.438 145.981 41.4409 145.992 41.437C146.016 41.4288 146.075 41.4141 146.185 41.3999C146.401 41.372 146.732 41.356 147.189 41.356V40.856V40.356C146.719 40.356 146.337 40.372 146.057 40.4081C145.919 40.4259 145.784 40.4512 145.668 40.491C145.61 40.5111 145.54 40.54 145.473 40.584C145.407 40.6266 145.315 40.7017 145.254 40.8244L145.701 41.048ZM147.189 40.856V41.356C148.25 41.356 149.015 41.3821 149.496 41.4314C149.745 41.4568 149.882 41.4852 149.94 41.505C149.978 41.518 149.928 41.5092 149.868 41.4484C149.831 41.4116 149.777 41.3422 149.754 41.2379C149.73 41.1281 149.751 41.0294 149.783 40.9585L150.237 41.168L150.691 41.3775C150.736 41.2806 150.76 41.1567 150.731 41.0225C150.702 40.8938 150.634 40.8009 150.575 40.7413C150.468 40.635 150.338 40.584 150.261 40.558C150.09 40.4998 149.858 40.4632 149.598 40.4366C149.063 40.3819 148.256 40.356 147.189 40.356V40.856ZM150.237 41.168L149.766 41.0023L144.126 57.0583L144.597 57.224L145.069 57.3897L150.709 41.3337L150.237 41.168ZM144.597 57.224L144.104 57.1418C144.134 56.964 144.249 56.8727 144.288 56.8459C144.312 56.8296 144.331 56.8204 144.34 56.8162C144.345 56.8139 144.349 56.8124 144.351 56.8115C144.354 56.8106 144.355 56.8102 144.355 56.8102C144.355 56.8102 144.354 56.8105 144.352 56.811C144.35 56.8116 144.348 56.8123 144.344 56.8132C144.336 56.815 144.326 56.8172 144.312 56.8196C144.284 56.8246 144.248 56.8298 144.201 56.8349C144.009 56.8559 143.705 56.868 143.277 56.868V57.368V57.868C143.714 57.868 144.062 57.8561 144.31 57.8291C144.43 57.8159 144.552 57.7968 144.656 57.7638C144.707 57.7478 144.782 57.7201 144.855 57.6696C144.924 57.6218 145.057 57.508 145.09 57.3062L144.597 57.224ZM143.277 57.368V56.868C142.442 56.868 141.664 56.8365 140.945 56.7739L140.901 57.272L140.858 57.7701C141.61 57.8355 142.417 57.868 143.277 57.868V57.368ZM140.901 57.272L140.934 56.7731C140.569 56.7493 140.321 56.7227 140.175 56.6961C140.094 56.6815 140.08 56.6729 140.098 56.681C140.102 56.6827 140.17 56.7109 140.234 56.7872C140.27 56.8307 140.314 56.8997 140.334 56.9943C140.354 57.0932 140.341 57.1877 140.31 57.2657L139.845 57.08L139.381 56.8943C139.297 57.1053 139.364 57.3069 139.469 57.4313C139.549 57.5266 139.644 57.5733 139.688 57.593C139.786 57.6371 139.9 57.6625 139.996 57.6799C140.201 57.7173 140.497 57.7467 140.869 57.7709L140.901 57.272ZM139.845 57.08L140.307 57.2714L142.395 52.2314L141.933 52.04L141.471 51.8486L139.383 56.8886L139.845 57.08ZM141.933 52.04L142.402 51.865L138.322 40.945L137.853 41.12L137.385 41.295L141.465 52.215L141.933 52.04Z" fill="#090909"/>
<defs>
<linearGradient id="paint0_linear_2_9" x1="497.538" y1="36.0788" x2="442.566" y2="201.446" gradientUnits="userSpaceOnUse">
<stop stop-color="#FFD740"/>
<stop offset="0.35" stop-color="#FFCA28"/>
<stop offset="0.7" stop-color="#FFA000"/>
<stop offset="1" stop-color="#F57C00"/>
</linearGradient>
<clipPath id="clip0_2_9">
<rect width="126" height="41" fill="white" transform="translate(25 9)"/>
</clipPath>
</defs>
</svg>
