<svg width="94" height="42" viewBox="0 0 94 42" fill="none" xmlns="http://www.w3.org/2000/svg">
<path d="M21 38.5715C21 36.5634 22.6655 35.002 24.5679 35.2266L81.2847 41.9228C88.5554 42.7812 94.7134 36.3553 93.9331 28.7243C93.1202 20.7756 85.262 15.8696 78.2137 18.9106L25.4296 41.6845C23.3177 42.5957 21 40.9669 21 38.5715Z" fill="url(#paint0_linear_10_6)"/>
<path d="M12.5797 32.36C10.6117 32.36 8.93169 32 7.53969 31.28C6.14769 30.56 4.91169 29.516 3.83169 28.148L6.13569 25.844C6.92769 26.948 7.83969 27.788 8.87169 28.364C9.90369 28.916 11.1757 29.192 12.6877 29.192C14.1757 29.192 15.3637 28.868 16.2517 28.22C17.1637 27.572 17.6197 26.684 17.6197 25.556C17.6197 24.62 17.4037 23.864 16.9717 23.288C16.5397 22.712 15.9517 22.244 15.2077 21.884C14.4877 21.5 13.6957 21.164 12.8317 20.876C11.9677 20.564 11.1037 20.24 10.2397 19.904C9.37569 19.544 8.58369 19.112 7.86369 18.608C7.14369 18.08 6.55569 17.396 6.09969 16.556C5.66769 15.716 5.45169 14.66 5.45169 13.388C5.45169 11.972 5.78769 10.772 6.45969 9.788C7.15569 8.78 8.09169 8.012 9.26769 7.484C10.4677 6.932 11.8117 6.656 13.2997 6.656C14.9317 6.656 16.3957 6.98 17.6917 7.628C18.9877 8.252 20.0437 9.08 20.8597 10.112L18.5557 12.416C17.8117 11.552 17.0077 10.904 16.1437 10.472C15.3037 10.04 14.3317 9.824 13.2277 9.824C11.8837 9.824 10.8157 10.124 10.0237 10.724C9.23169 11.3 8.83569 12.116 8.83569 13.172C8.83569 14.012 9.05169 14.696 9.48369 15.224C9.93969 15.728 10.5277 16.16 11.2477 16.52C11.9677 16.88 12.7597 17.216 13.6237 17.528C14.5117 17.816 15.3877 18.14 16.2517 18.5C17.1157 18.86 17.9077 19.316 18.6277 19.868C19.3477 20.42 19.9237 21.14 20.3557 22.028C20.8117 22.892 21.0397 23.984 21.0397 25.304C21.0397 27.512 20.2717 29.24 18.7357 30.488C17.2237 31.736 15.1717 32.36 12.5797 32.36ZM35.9684 32L27.9764 23.252L35.8964 14.9H39.8204L31.0004 24.116L31.1444 22.244L40.1444 32H35.9684ZM25.0244 32V6.296H28.2644V32H25.0244ZM42.3573 32V14.9H45.5973V32H42.3573ZM43.9773 11.48C43.3773 11.48 42.8853 11.288 42.5013 10.904C42.1173 10.496 41.9253 9.992 41.9253 9.392C41.9253 8.816 42.1173 8.336 42.5013 7.952C42.8853 7.544 43.3773 7.34 43.9773 7.34C44.5773 7.34 45.0693 7.544 45.4533 7.952C45.8373 8.336 46.0293 8.816 46.0293 9.392C46.0293 9.992 45.8373 10.496 45.4533 10.904C45.0693 11.288 44.5773 11.48 43.9773 11.48ZM50.3721 32V6.296H53.6121V32H50.3721ZM58.3526 32V6.296H61.5926V32H58.3526ZM71.769 32.36C70.809 32.36 69.897 32.24 69.033 32C68.193 31.736 67.413 31.376 66.693 30.92C65.973 30.44 65.349 29.876 64.821 29.228L66.909 27.14C67.533 27.908 68.253 28.484 69.069 28.868C69.885 29.228 70.797 29.408 71.805 29.408C72.813 29.408 73.593 29.24 74.145 28.904C74.697 28.544 74.973 28.052 74.973 27.428C74.973 26.804 74.745 26.324 74.289 25.988C73.857 25.628 73.293 25.34 72.597 25.124C71.901 24.884 71.157 24.656 70.365 24.44C69.597 24.2 68.865 23.9 68.169 23.54C67.473 23.18 66.897 22.688 66.441 22.064C66.009 21.44 65.793 20.612 65.793 19.58C65.793 18.548 66.045 17.66 66.549 16.916C67.053 16.148 67.749 15.56 68.637 15.152C69.549 14.744 70.641 14.54 71.913 14.54C73.257 14.54 74.445 14.78 75.477 15.26C76.533 15.716 77.397 16.412 78.069 17.348L75.981 19.436C75.501 18.812 74.901 18.332 74.181 17.996C73.485 17.66 72.693 17.492 71.805 17.492C70.869 17.492 70.149 17.66 69.645 17.996C69.165 18.308 68.925 18.752 68.925 19.328C68.925 19.904 69.141 20.348 69.573 20.66C70.005 20.972 70.569 21.236 71.265 21.452C71.985 21.668 72.729 21.896 73.497 22.136C74.265 22.352 74.997 22.652 75.693 23.036C76.389 23.42 76.953 23.936 77.385 24.584C77.841 25.232 78.069 26.084 78.069 27.14C78.069 28.748 77.493 30.02 76.341 30.956C75.213 31.892 73.689 32.36 71.769 32.36Z" fill="black"/>
<defs>
<linearGradient id="paint0_linear_10_6" x1="295.389" y1="33.9781" x2="262.168" y2="131.718" gradientUnits="userSpaceOnUse">
<stop stop-color="#FFD740"/>
<stop offset="0.35" stop-color="#FFCA28"/>
<stop offset="0.7" stop-color="#FFA000"/>
<stop offset="1" stop-color="#F57C00"/>
</linearGradient>
</defs>
</svg>
